<?xml version="1.0" encoding="utf-8"?>
<!-- Generator: Adobe Illustrator 13.0.0, SVG Export Plug-In . SVG Version: 6.00 Build 14948)  -->
<!DOCTYPE svg PUBLIC "-//W3C//DTD SVG 1.1//EN" "http://www.w3.org/Graphics/SVG/1.1/DTD/svg11.dtd">
<svg version="1.1" id="Layer_1" xmlns="http://www.w3.org/2000/svg" xmlns:xlink="http://www.w3.org/1999/xlink" x="0px" y="0px"
	 width="53.496px" height="35.059px" viewBox="0.514 0.792 53.496 35.059" enable-background="new 0.514 0.792 53.496 35.059"
	 xml:space="preserve">
<path fill="#EC6E08" d="M0.514,8.24V4.917c0-2.278,1.745-4.125,3.895-4.125h45.704c2.152,0,3.896,1.847,3.896,4.125V8.24L0.514,8.24
	L0.514,8.24z M54.008,15.205v16.52c0,2.279-1.742,4.126-3.896,4.126H4.409c-2.15,0-3.895-1.847-3.895-4.126v-16.52H54.008z
	 M15.792,26.227H6.487v2.613h9.305V26.227z M23.648,20.795H6.488v2.613h17.161L23.648,20.795L23.648,20.795z M48.124,20.795h-7.748
	v2.613h7.748V20.795z"/>
</svg>
