<?xml version="1.0" encoding="utf-8"?>
<!-- Generator: Adobe Illustrator 13.0.0, SVG Export Plug-In . SVG Version: 6.00 Build 14948)  -->
<!DOCTYPE svg PUBLIC "-//W3C//DTD SVG 1.1//EN" "http://www.w3.org/Graphics/SVG/1.1/DTD/svg11.dtd">
<svg version="1.1" id="Layer_1" xmlns="http://www.w3.org/2000/svg" xmlns:xlink="http://www.w3.org/1999/xlink" x="0px" y="0px"
	 width="46.85px" height="46.042px" viewBox="0 0 46.85 46.042" enable-background="new 0 0 46.85 46.042" xml:space="preserve">
<path fill="#EC6E08" d="M19.744,25.298c0,1.328-1.076,2.404-2.405,2.404c-1.327,0-2.405-1.076-2.405-2.404
	c0-1.33,1.078-2.404,2.405-2.404C18.667,22.894,19.744,23.968,19.744,25.298 M29.508,22.894c-1.327,0-2.404,1.074-2.404,2.404
	c0,1.328,1.077,2.404,2.404,2.404c1.328,0,2.405-1.076,2.405-2.404C31.913,23.968,30.836,22.894,29.508,22.894 M46.848,23.957v4.57
	c0,2.297-1.861,4.156-4.156,4.156h-3.017c-2.987,8.298-10.617,13.309-16.253,13.309c-5.634,0-13.263-5.011-16.252-13.309H4.155
	c-2.295,0-4.157-1.859-4.157-4.156v-4.57c0-1.579,0.882-2.953,2.179-3.656C2.222,13.812,4.113,8.743,7.809,5.239
	c3.665-3.476,8.918-5.24,15.613-5.24c6.697,0,11.949,1.764,15.615,5.24c3.695,3.504,5.587,8.573,5.631,15.063
	C45.966,21.004,46.848,22.378,46.848,23.957 M38.052,25.313c0-1.069-0.055-2.074-0.136-3.047c-1.845-1.688-5.191-2.968-9.419-3.445
	c0.557,0.626,1.035,1.446,1.326,2.526c-2.589-2.04-7.67-1.555-11.512-6.116c-0.221-0.256-0.41-0.498-0.577-0.722
	c-0.002-0.002-0.004-0.004-0.005-0.006c-0.684-0.926-0.916-1.476-0.93-0.865c-0.112,5.244-3.832,9.333-7.959,9.908
	c-0.024,0.578-0.047,1.16-0.047,1.768c0,2.217,0.363,4.236,0.979,6.059c2.318,2.797,6.147,3.586,9.537,3.795
	c0.629-1.002,2.04-1.699,3.685-1.699c2.229,0,4.035,1.281,4.035,2.865c0,1.582-1.807,2.865-4.035,2.865
	c-1.715,0-3.175-0.762-3.759-1.832c-2.369-0.139-4.974-0.541-7.294-1.638c3.264,4.812,8.323,7.354,11.481,7.354
	C28.388,43.083,38.052,36.812,38.052,25.313 M42.166,19.801C41.902,8.477,35.438,2.492,23.423,2.492
	c-12.015,0-18.479,5.985-18.742,17.309h1.598c0.585-3.816,1.822-6.956,3.698-9.369c2.987-3.847,7.514-5.799,13.446-5.799
	c5.936,0,10.459,1.952,13.448,5.799c1.876,2.413,3.112,5.552,3.696,9.369H42.166z"/>
</svg>
