<?xml version="1.0" encoding="utf-8"?>
<!-- Generator: Adobe Illustrator 13.0.0, SVG Export Plug-In . SVG Version: 6.00 Build 14948)  -->
<!DOCTYPE svg PUBLIC "-//W3C//DTD SVG 1.1//EN" "http://www.w3.org/Graphics/SVG/1.1/DTD/svg11.dtd">
<svg version="1.1" id="Layer_1" xmlns="http://www.w3.org/2000/svg" xmlns:xlink="http://www.w3.org/1999/xlink" x="0px" y="0px"
	 width="45.881px" height="42.867px" viewBox="0 0 45.881 42.867" enable-background="new 0 0 45.881 42.867" xml:space="preserve">
<path fill="#EC6E08" d="M22.939,42.867c-0.431,0-0.843-0.18-1.137-0.496L3.465,22.607c-0.004-0.006-0.009-0.013-0.014-0.018
	C1.226,20.128,0,16.861,0,13.396c0-3.467,1.226-6.732,3.452-9.197L3.731,3.89C5.996,1.382,9.021,0,12.249,0
	c3.227,0,6.252,1.382,8.519,3.891l2.172,2.406l2.174-2.406C27.379,1.382,30.403,0,33.632,0s6.253,1.382,8.52,3.891l0.277,0.308
	c2.227,2.465,3.452,5.73,3.452,9.197c0,3.466-1.226,6.733-3.45,9.195c-0.006,0.007-0.01,0.011-0.016,0.017L24.078,42.371
	C23.784,42.688,23.373,42.867,22.939,42.867 M5.749,20.504L22.94,39.033l17.192-18.529c3.536-3.924,3.535-10.303-0.007-14.224
	l-0.278-0.308c-1.67-1.848-3.877-2.868-6.215-2.868s-4.546,1.02-6.215,2.868l-3.324,3.681c-0.294,0.325-0.713,0.512-1.152,0.512
	c-0.438,0-0.858-0.187-1.151-0.512l-3.325-3.681c-1.67-1.848-3.877-2.868-6.214-2.868c-2.338,0-4.545,1.02-6.215,2.868L5.754,6.28
	C2.213,10.201,2.211,16.58,5.749,20.504"/>
</svg>
