<?xml version="1.0" encoding="utf-8"?>
<!-- Generator: Adobe Illustrator 13.0.0, SVG Export Plug-In . SVG Version: 6.00 Build 14948)  -->
<!DOCTYPE svg PUBLIC "-//W3C//DTD SVG 1.1//EN" "http://www.w3.org/Graphics/SVG/1.1/DTD/svg11.dtd">
<svg version="1.1" id="Layer_1" xmlns="http://www.w3.org/2000/svg" xmlns:xlink="http://www.w3.org/1999/xlink" x="0px" y="0px"
	 width="52.113px" height="38.922px" viewBox="0 0 52.113 38.922" enable-background="new 0 0 52.113 38.922" xml:space="preserve">
<g>
	<g>
		<g>
			<defs>
				<rect id="SVGID_1_" x="2.633" y="1.961" width="46.855" height="35"/>
			</defs>
			<clipPath id="SVGID_2_">
				<use xlink:href="#SVGID_1_"  overflow="visible"/>
			</clipPath>
			<path clip-path="url(#SVGID_2_)" fill="#EC6E08" d="M10.768,27.581c0.466,0,0.906-0.181,1.244-0.513
				c0.68-0.686,0.68-1.793,0-2.483L8.62,21.203h23.22c0.971,0,1.76-0.787,1.76-1.757c0-0.97-0.789-1.758-1.76-1.758H8.625
				l3.388-3.387c0.684-0.684,0.684-1.799-0.006-2.488c-0.332-0.332-0.771-0.514-1.238-0.514c-0.469,0-0.909,0.182-1.246,0.514
				L3.15,18.196c-0.165,0.161-0.296,0.358-0.395,0.592C2.674,19,2.625,19.222,2.625,19.446c0,0.229,0.042,0.45,0.137,0.668
				c0.087,0.223,0.223,0.415,0.378,0.571l6.382,6.383C9.853,27.4,10.296,27.581,10.768,27.581"/>
		</g>
	</g>
</g>
<g>
	<g>
		<g>
			<defs>
				<rect id="SVGID_3_" x="2.625" y="1.961" width="46.863" height="35"/>
			</defs>
			<clipPath id="SVGID_4_">
				<use xlink:href="#SVGID_3_"  overflow="visible"/>
			</clipPath>
			<path clip-path="url(#SVGID_4_)" fill="#EC6E08" d="M48.183,1.961H15.802c-0.716,0-1.296,0.581-1.296,1.296v12.776h3.24V5.202
				h28.5V33.7h-28.5V22.864h-3.24v12.774c0,0.717,0.581,1.297,1.296,1.297h32.383c0.716,0,1.296-0.582,1.296-1.297V3.257
				C49.479,2.542,48.899,1.961,48.183,1.961"/>
		</g>
	</g>
</g>
</svg>
