<svg xmlns="http://www.w3.org/2000/svg" width="195" height="192" viewBox="0 0 195 192">
  <metadata><?xpacket begin="﻿" id="W5M0MpCehiHzreSzNTczkc9d"?>
<x:xmpmeta xmlns:x="adobe:ns:meta/" x:xmptk="Adobe XMP Core 5.6-c138 79.159824, 2016/09/14-01:09:01        ">
   <rdf:RDF xmlns:rdf="http://www.w3.org/1999/02/22-rdf-syntax-ns#">
      <rdf:Description rdf:about=""/>
   </rdf:RDF>
</x:xmpmeta>
                                                                                                    
                                                                                                    
                                                                                                    
                                                                                                    
                                                                                                    
                                                                                                    
                                                                                                    
                                                                                                    
                                                                                                    
                                                                                                    
                                                                                                    
                                                                                                    
                                                                                                    
                                                                                                    
                                                                                                    
                                                                                                    
                                                                                                    
                                                                                                    
                                                                                                    
                                                                                                    
                           
<?xpacket end="w"?></metadata>
<defs>
    <style>
      .cls-1 {
        fill: #ec6f23;
        fill-rule: evenodd;
      }
    </style>
  </defs>
  <path class="cls-1" d="M168.816,100.952H163.5a59.567,59.567,0,0,0-19.535-27.685,5.028,5.028,0,0,0-.15-1.047c-1.907-6.736.45-12.908,3.22-17.323a4.343,4.343,0,0,0-4.192-6.622c-8.12,1.011-13.7,4-17.55,7.333a16.989,16.989,0,0,0-5.352,8.792A54.889,54.889,0,0,1,33.237,95.079,53.5,53.5,0,0,0,29.795,130.1a0.686,0.686,0,0,0,.037.189,53.206,53.206,0,0,0,4.528,12.045,64.129,64.129,0,0,0,11.564,17.51c7.521,7.744,8.793,17.321,8.981,21.437v2.057A3.949,3.949,0,0,0,58.8,187H82.671a3.926,3.926,0,0,0,3.928-3.927v-5.912a82.105,82.105,0,0,0,10.591.711,76.3,76.3,0,0,0,8.308-.449v5.612a3.928,3.928,0,0,0,3.929,3.928H133.3a3.93,3.93,0,0,0,3.93-3.928v-5.911a23.5,23.5,0,0,1,8.084-16.424c0.261-.225.522-0.449,0.785-0.711,0.075-.075.15-0.113,0.225-0.188a59.163,59.163,0,0,0,17.437-26.6h5.016A7.226,7.226,0,0,0,176,125.981V108.135a7.161,7.161,0,0,0-7.184-7.183h0Zm-29.826,1.274a5.912,5.912,0,1,1,5.913-5.912,5.925,5.925,0,0,1-5.913,5.912h0Zm0,0-72.41-5.09A45.568,45.568,0,1,0,21,51.569,45.557,45.557,0,0,0,66.58,97.136h0ZM39.822,53.962A1.583,1.583,0,0,1,41.4,52.391h4.339V49.51H41.4a1.582,1.582,0,0,1-1.574-1.571V44.423A1.582,1.582,0,0,1,41.4,42.852h5.5l0.189-.561A23.517,23.517,0,0,1,55.054,30.5a22.861,22.861,0,0,1,10.59-4.377A30.315,30.315,0,0,1,81.624,28a7.954,7.954,0,0,1,.972.449,2.082,2.082,0,0,1,1.01,2.956c-0.561,1.385-1.16,2.806-1.8,4.152a1.954,1.954,0,0,1-2.545,1.273c-1.758-.413-3.443-0.935-5.2-1.273a18.829,18.829,0,0,0-10.928.636,11.545,11.545,0,0,0-6.249,6.472v0.114h10.7a1.58,1.58,0,0,1,1.571,1.571v3.517a1.581,1.581,0,0,1-1.571,1.571H55.354v2.881H67.591a1.581,1.581,0,0,1,1.571,1.571v3.519a1.58,1.58,0,0,1-1.571,1.571H56.4c1.347,3.853,3.555,6.847,7.67,8.118a19.548,19.548,0,0,0,9.955.3c1.722-.374,3.406-0.9,5.127-1.273a2.021,2.021,0,0,1,2.657,1.31c0.636,1.385,1.235,2.806,1.8,4.227a2.028,2.028,0,0,1-1.16,2.919,29.233,29.233,0,0,1-4.267,1.534,28.578,28.578,0,0,1-16.615-.188c-6.66-2.17-11.113-6.7-13.734-13.094A34.947,34.947,0,0,1,46.6,59.013H41.357a1.581,1.581,0,0,1-1.572-1.571v-3.48h0.036Zm0,0"/>
</svg>
