<svg xmlns="http://www.w3.org/2000/svg" width="195" height="192" viewBox="0 0 195 192">
  <metadata><?xpacket begin="﻿" id="W5M0MpCehiHzreSzNTczkc9d"?>
<x:xmpmeta xmlns:x="adobe:ns:meta/" x:xmptk="Adobe XMP Core 5.6-c138 79.159824, 2016/09/14-01:09:01        ">
   <rdf:RDF xmlns:rdf="http://www.w3.org/1999/02/22-rdf-syntax-ns#">
      <rdf:Description rdf:about=""/>
   </rdf:RDF>
</x:xmpmeta>
                                                                                                    
                                                                                                    
                                                                                                    
                                                                                                    
                                                                                                    
                                                                                                    
                                                                                                    
                                                                                                    
                                                                                                    
                                                                                                    
                                                                                                    
                                                                                                    
                                                                                                    
                                                                                                    
                                                                                                    
                                                                                                    
                                                                                                    
                                                                                                    
                                                                                                    
                                                                                                    
                           
<?xpacket end="w"?></metadata>
<defs>
    <style>
      .cls-1 {
        fill: #ec6f23;
        fill-rule: evenodd;
      }
    </style>
  </defs>
  <path class="cls-1" d="M179.614,92.32V92.3l-0.724.87L97.5,15.13H23.174A10.111,10.111,0,0,1,33.306,5.024V5h64.17V5.042A0.02,0.02,0,0,0,97.5,5.024,10.079,10.079,0,0,1,104.683,8l56.9,54.277a1.065,1.065,0,0,1,.065-0.1l17.34,16.548A10.2,10.2,0,0,1,182,85.895a10.04,10.04,0,0,1-2.386,6.425m-92.27-67.1v0.042h0.024a10.046,10.046,0,0,1,7.183,2.977l77.634,74.046a9.94,9.94,0,0,1,2.829,5.155h0a6.438,6.438,0,0,1,.12.888,0.327,0.327,0,0,1,.042.143,5.933,5.933,0,0,1,.042.865v0.161a10.063,10.063,0,0,1-2.405,6.562h0l-57.43,67.4h-0.018A10.113,10.113,0,0,1,107.632,187a8.719,8.719,0,0,1-.969-0.036c-0.239-.024-0.443-0.06-0.688-0.1a0.823,0.823,0,0,0-.221-0.018,10.124,10.124,0,0,1-4.785-2.357l-0.018.019L16.469,106.994l0.042-.036a10.044,10.044,0,0,1-3.469-7.391H13v-64.2h0.042A10.1,10.1,0,0,1,23.174,25.259V25.216h64.17Zm-47.3,40.468a13.479,13.479,0,1,0-13.481-13.47,13.508,13.508,0,0,0,13.482,13.47"/>
</svg>
