<?xml version="1.0" encoding="utf-8"?>
<!-- Generator: Adobe Illustrator 13.0.0, SVG Export Plug-In . SVG Version: 6.00 Build 14948)  -->
<!DOCTYPE svg PUBLIC "-//W3C//DTD SVG 1.1//EN" "http://www.w3.org/Graphics/SVG/1.1/DTD/svg11.dtd">
<svg version="1.1" id="Layer_1" xmlns="http://www.w3.org/2000/svg" xmlns:xlink="http://www.w3.org/1999/xlink" x="0px" y="0px"
	 width="30.018px" height="30.018px" viewBox="0 0 30.018 30.018" enable-background="new 0 0 30.018 30.018" xml:space="preserve">
<g>
	<g>
		<defs>
			<rect id="SVGID_1_" x="2.183" y="2.182" width="25.65" height="25.653"/>
		</defs>
		<clipPath id="SVGID_2_">
			<use xlink:href="#SVGID_1_"  overflow="visible"/>
		</clipPath>
		<path clip-path="url(#SVGID_2_)" fill="#FFFFFF" d="M27.36,25.063L4.956,2.66c-0.633-0.635-1.666-0.635-2.3,0
			c-0.63,0.63-0.63,1.664,0.004,2.298L25.063,27.36c0.634,0.636,1.663,0.633,2.294,0C27.991,26.726,27.994,25.696,27.36,25.063"/>
	</g>
	<g>
		<defs>
			<rect id="SVGID_3_" x="2.183" y="2.182" width="25.65" height="25.653"/>
		</defs>
		<clipPath id="SVGID_4_">
			<use xlink:href="#SVGID_3_"  overflow="visible"/>
		</clipPath>
		<path clip-path="url(#SVGID_4_)" fill="#FFFFFF" d="M25.063,2.657L2.658,25.062c-0.634,0.633-0.634,1.665,0,2.299
			c0.63,0.633,1.664,0.633,2.298-0.003L27.359,4.954c0.634-0.634,0.631-1.663,0-2.293C26.725,2.026,25.696,2.023,25.063,2.657"/>
	</g>
</g>
</svg>
