<?xml version="1.0" encoding="utf-8"?>
<!-- Generator: Adobe Illustrator 15.0.0, SVG Export Plug-In . SVG Version: 6.00 Build 0)  -->
<!DOCTYPE svg PUBLIC "-//W3C//DTD SVG 1.1//EN" "http://www.w3.org/Graphics/SVG/1.1/DTD/svg11.dtd">
<svg version="1.1" id="Layer_1" xmlns="http://www.w3.org/2000/svg" xmlns:xlink="http://www.w3.org/1999/xlink" x="0px" y="0px"
	 width="46.849px" height="46.042px" viewBox="0 0 46.849 46.042" enable-background="new 0 0 46.849 46.042" xml:space="preserve">
<g>
	<defs>
		<rect id="SVGID_1_" x="0.008" width="46.837" height="46.042"/>
	</defs>
	<clipPath id="SVGID_2_">
		<use xlink:href="#SVGID_1_"  overflow="visible"/>
	</clipPath>
	<path clip-path="url(#SVGID_2_)" fill="#B0AFB0" d="M19.744,25.299c0,1.327-1.076,2.403-2.405,2.403
		c-1.328,0-2.406-1.076-2.406-2.403c0-1.33,1.078-2.405,2.406-2.405C18.667,22.894,19.744,23.969,19.744,25.299 M29.508,22.894
		c-1.328,0-2.405,1.075-2.405,2.405c0,1.327,1.077,2.403,2.405,2.403s2.405-1.076,2.405-2.403
		C31.913,23.969,30.836,22.894,29.508,22.894 M46.848,23.956v4.571c0,2.297-1.861,4.156-4.156,4.156h-3.016
		c-2.988,8.298-10.618,13.308-16.253,13.308c-5.634,0-13.263-5.01-16.252-13.308H4.155c-2.295,0-4.157-1.859-4.157-4.156v-4.571
		c0-1.578,0.882-2.952,2.179-3.655C2.222,13.812,4.113,8.743,7.809,5.239c3.665-3.476,8.918-5.24,15.614-5.24
		c6.697,0,11.949,1.764,15.615,5.24c3.695,3.504,5.587,8.573,5.631,15.063C45.966,21.004,46.848,22.378,46.848,23.956
		 M38.052,25.313c0-1.069-0.055-2.074-0.136-3.047c-1.845-1.688-5.192-2.968-9.419-3.445c0.556,0.626,1.035,1.446,1.326,2.526
		c-2.589-2.04-7.67-1.555-11.512-6.116c-0.22-0.256-0.41-0.498-0.577-0.722c-0.002-0.002-0.004-0.004-0.005-0.006
		c-0.683-0.926-0.916-1.476-0.929-0.865c-0.113,5.244-3.832,9.333-7.959,9.908c-0.025,0.578-0.047,1.16-0.047,1.768
		c0,2.216,0.363,4.237,0.978,6.058c2.319,2.797,6.148,3.587,9.537,3.795c0.629-1.001,2.04-1.698,3.685-1.698
		c2.229,0,4.035,1.281,4.035,2.864s-1.807,2.865-4.035,2.865c-1.715,0-3.175-0.761-3.759-1.832
		c-2.369-0.138-4.974-0.541-7.294-1.637c3.264,4.811,8.323,7.355,11.482,7.355C28.388,43.084,38.052,36.812,38.052,25.313
		 M42.166,19.801C41.902,8.477,35.438,2.492,23.423,2.492c-12.015,0-18.479,5.985-18.743,17.309h1.598
		c0.585-3.816,1.822-6.956,3.698-9.369c2.988-3.847,7.514-5.799,13.447-5.799c5.935,0,10.459,1.952,13.448,5.799
		c1.876,2.413,3.112,5.552,3.696,9.369H42.166z"/>
</g>
</svg>
