<?xml version="1.0" encoding="utf-8"?>
<!-- Generator: Adobe Illustrator 21.1.0, SVG Export Plug-In . SVG Version: 6.00 Build 0)  -->
<svg version="1.1" id="Layer_1" xmlns="http://www.w3.org/2000/svg" xmlns:xlink="http://www.w3.org/1999/xlink" x="0px" y="0px"
	 viewBox="0 0 73 67" style="enable-background:new 0 0 73 67;" xml:space="preserve">
<style type="text/css">
	.st0{fill:none;enable-background:new    ;}
	.st1{fill:#FFFFFF;}
</style>
<path class="st0" d="z"/>
<g>
	<path class="st1" d="M70.9,27.8l-8.9-5.9V2c0-0.6-0.5-1.2-1.2-1.2H11.9c-0.6,0-1.2,0.5-1.2,1.2v19.8l-8.9,5.9h0
		c-0.3,0.2-0.5,0.6-0.5,1v35.9c0,0.6,0.5,1.2,1.2,1.2h67.8c0.6,0,1.2-0.5,1.2-1.2V28.7C71.4,28.3,71.2,28,70.9,27.8L70.9,27.8z
		 M10.8,31.8l-3.6-1.9h3.6V31.8z M3.6,30.7l26.7,14.2L3.6,62.5V30.7z M36.3,43.6l30,19.9H6.3L36.3,43.6z M42.4,44.8l26.7-14.2v31.9
		L42.4,44.8z M61.9,29.9h3.6l-3.6,1.9V29.9z M66.4,27.6h-4.5v-3L66.4,27.6z M59.6,3.2v29.9L40.2,43.4L37,41.2
		c-0.4-0.3-0.9-0.3-1.3,0l-3.2,2.1L13.1,33.1V3.2H59.6z M10.8,27.6H6.3l4.5-3V27.6z M10.8,27.6"/>
	<path class="st1" d="M36.3,31.4h9.2c0.6,0,1.2-0.5,1.2-1.2c0-0.6-0.5-1.2-1.2-1.2h-9.2c-4.5,0-8.1-3.6-8.1-8.1v-0.3
		c0-4.5,3.6-8.1,8.1-8.1c4.5,0,8.1,3.6,8.1,8.1v0.9c0,1-0.8,1.8-1.8,1.8c-1,0-1.8-0.8-1.8-1.8v-1.6c0-2.8-2.2-5-5-5
		c-2.8,0-5,2.3-5,5c0,2.8,2.2,5,5,5c1.3,0,2.4-0.5,3.3-1.2c0.7,1.2,2,1.9,3.5,1.9c2.2,0,4.1-1.8,4.1-4.1v-0.9
		c0-5.7-4.7-10.4-10.4-10.4c-5.7,0-10.4,4.7-10.4,10.4V21C25.9,26.7,30.6,31.4,36.3,31.4L36.3,31.4z M35.9,22.5
		c-1.5,0-2.7-1.2-2.7-2.7c0-1.5,1.2-2.7,2.7-2.7c1.5,0,2.7,1.2,2.7,2.7C38.6,21.3,37.4,22.5,35.9,22.5L35.9,22.5z M35.9,22.5"/>
</g>
</svg>
