<?xml version="1.0" encoding="utf-8"?>
<!-- Generator: Adobe Illustrator 21.1.0, SVG Export Plug-In . SVG Version: 6.00 Build 0)  -->
<svg version="1.1" id="Layer_1" xmlns="http://www.w3.org/2000/svg" xmlns:xlink="http://www.w3.org/1999/xlink" x="0px" y="0px"
	 viewBox="0 0 66 66" style="enable-background:new 0 0 66 66;" xml:space="preserve">
<style type="text/css">
	.st0{fill:none;enable-background:new    ;}
	.st1{fill:#EC6E08;}
	.st2{fill:#FFFFFF;}
</style>
<path class="st0" d="z"/>
<g>
	<g>
		<path class="st1" d="M63.8,33c0,17-13.8,30.8-30.8,30.8C16.1,63.8,2.3,50,2.3,33c0-17,13.8-30.8,30.8-30.8C50,2.3,63.8,16,63.8,33
			z"/>
	</g>
	<path class="st2" d="M25.3,52l12.3-12.4c0.5-0.5,0.1-1.4-0.6-1.4h-1c-0.7,0-1-0.8-0.6-1.3l6.5-8.3c0.4-0.5,0-1.3-0.6-1.3h-3.3
		c-0.7,0-1-0.8-0.6-1.3L45.8,15c0.4-0.5,0-1.3-0.6-1.3H31.9c-0.3,0-0.6,0.2-0.7,0.4l-6.5,13.1c-0.3,0.5,0.1,1.2,0.7,1.2h3
		c0.6,0,1,0.6,0.7,1.2l-4.4,8.9c-0.3,0.5,0.1,1.2,0.7,1.2h2.8c0.6,0,1,0.6,0.7,1.2l-5,10.3C23.6,51.9,24.7,52.7,25.3,52L25.3,52z"/>
</g>
</svg>
