<?xml version="1.0" encoding="utf-8"?>
<!-- Generator: Adobe Illustrator 13.0.0, SVG Export Plug-In . SVG Version: 6.00 Build 14948)  -->
<!DOCTYPE svg PUBLIC "-//W3C//DTD SVG 1.1//EN" "http://www.w3.org/Graphics/SVG/1.1/DTD/svg11.dtd">
<svg version="1.1" id="Layer_1" xmlns="http://www.w3.org/2000/svg" xmlns:xlink="http://www.w3.org/1999/xlink" x="0px" y="0px"
	 width="290.376px" height="412px" viewBox="0 0 290.376 412" enable-background="new 0 0 290.376 412" xml:space="preserve">
<g>
	<defs>
		<rect id="SVGID_1_" width="290.376" height="412"/>
	</defs>
	<clipPath id="SVGID_2_">
		<use xlink:href="#SVGID_1_"  overflow="visible"/>
	</clipPath>
	<path clip-path="url(#SVGID_2_)" fill="#FFFFFF" d="M290.376,235.361H0v59.785h11.366V412H279.01V295.146h11.365L290.376,235.361
		L290.376,235.361z M129.51,393.188H30.182v-98.04h99.328V393.188z M129.51,276.332H18.815v-22.155H129.51V276.332z
		 M160.866,254.177h110.696v22.155H160.866V254.177z M260.196,393.188h-99.33v-98.04h99.33V393.188z M131.465,218.151H42.063
		V113.992h89.402V218.151z M131.465,60.747H32.112v36.778h99.353V60.747z M158.91,218.151h89.405V113.992H158.91V218.151z
		 M158.91,97.525h99.354V60.747H158.91V97.525z M168.178,36.047h20.326c15.188,0,14.64-19.58,2.979-19.58
		C182.491,16.467,175.526,24.886,168.178,36.047 M196.424,0c34.896,0,34.531,49.769-0.231,49.769h-50.044
		C153.104,34.605,167.099,0,196.424,0 M100.813,16.467c-11.659,0-12.208,19.58,2.979,19.58h20.327
		C116.771,24.886,109.807,16.467,100.813,16.467 M95.873,0c29.327,0,43.32,34.605,50.275,49.769H96.107
		C61.342,49.769,60.978,0,95.873,0"/>
</g>
</svg>
