<?xml version="1.0" encoding="utf-8"?>
<!-- Generator: Adobe Illustrator 13.0.0, SVG Export Plug-In . SVG Version: 6.00 Build 14948)  -->
<!DOCTYPE svg PUBLIC "-//W3C//DTD SVG 1.1//EN" "http://www.w3.org/Graphics/SVG/1.1/DTD/svg11.dtd">
<svg version="1.1" id="Livello_1" xmlns="http://www.w3.org/2000/svg" xmlns:xlink="http://www.w3.org/1999/xlink" x="0px" y="0px"
	 width="637.276px" height="600.276px" viewBox="81.224 0 637.276 600.276" enable-background="new 81.224 0 637.276 600.276"
	 xml:space="preserve">
<g>
	<g>
		<path fill="#A2B1B7" d="M192.775,12.701C192.775,5.522,186.977,0,180.074,0H93.925c-6.903,0-12.701,5.798-12.701,12.701V98.85
			c0,7.179,5.798,12.701,12.701,12.701h86.148c7.179,0,12.701-5.798,12.701-12.701V12.701L192.775,12.701z"/>
		<path fill="#A2B1B7" d="M341.602,12.701C341.602,5.522,335.803,0,328.9,0h-86.148c-7.179,0-12.701,5.798-12.701,12.701V98.85
			c0,7.179,5.798,12.701,12.701,12.701h85.872c7.179,0,12.701-5.798,12.701-12.701V12.701H341.602z"/>
		<path fill="#A2B1B7" d="M490.428,12.701C490.428,5.522,484.63,0,477.727,0h-85.872c-7.179,0-12.701,5.798-12.701,12.701V98.85
			c0,7.179,5.798,12.701,12.701,12.701h86.148c7.179,0,12.701-5.798,12.701-12.701L490.428,12.701L490.428,12.701z"/>
		<path fill="#A2B1B7" d="M192.775,162.356c0-7.179-5.798-12.702-12.701-12.702H93.925c-7.179,0-12.701,5.798-12.701,12.702v86.148
			c0,7.179,5.798,12.701,12.701,12.701h86.148c7.179,0,12.701-5.798,12.701-12.701V162.356L192.775,162.356z"/>
		<path fill="#A2B1B7" d="M341.602,162.356c0-7.179-5.799-12.702-12.701-12.702h-86.148c-7.179,0-12.701,5.798-12.701,12.702v86.148
			c0,7.179,5.798,12.701,12.701,12.701h85.872c7.179,0,12.701-5.798,12.701-12.701v-86.148H341.602z"/>
		<path fill="#A2B1B7" d="M490.428,162.356c0-7.179-5.798-12.702-12.701-12.702h-85.872c-7.179,0-12.701,5.798-12.701,12.702v86.148
			c0,7.179,5.798,12.701,12.701,12.701h86.148c7.179,0,12.701-5.798,12.701-12.701L490.428,162.356L490.428,162.356z"/>
		<path fill="#A2B1B7" d="M180.074,299.31H93.925c-7.179,0-12.701,5.799-12.701,12.702v86.147c0,7.179,5.798,12.701,12.701,12.701
			h86.148c7.179,0,12.701-5.798,12.701-12.701v-86.147C192.775,305.108,186.977,299.31,180.074,299.31L180.074,299.31z"/>
		<path fill="#A2B1B7" d="M271.744,299.31h-25.126c-10.769,0-16.567,5.799-16.567,12.702v86.147c0,7.179,5.798,12.701,12.701,12.701
			h85.872c7.179,0,12.701-5.798,12.701-12.701l0,0L271.744,299.31z"/>
	</g>
	<path id="smartphone-3-icon_1_" fill="#A2B1B7" d="M639.255,298.757c45.835,64.334,33.134,109.618,79.245,174.505
		c-58.261,41.417-116.797,83.387-178.095,127.014c-96.089-71.515-179.199-94.708-205.982-103.544
		c-25.403-8.56-41.97-24.851-36.448-45.559c5.798-20.709,27.612-27.06,45.283-26.231c27.06,1.104,48.873,9.388,48.873,9.388
		L267.878,260.101c-11.044-15.462-7.455-37,8.007-48.32c15.463-11.044,37-7.455,48.32,8.007l84.216,117.626
		c4.142,5.798,11.873,6.902,17.671,3.037c5.799-4.143,6.903-11.873,3.037-17.672l-20.708-28.992
		c9.388-2.485,20.708-5.246,33.41-8.283c8.835-2.209,17.947,1.38,23.193,8.56l16.843,23.746c4.142,5.798,11.873,6.903,17.672,3.037
		c5.798-4.142,6.902-11.873,3.037-17.671l-19.604-27.612c10.769-2.485,21.813-4.97,32.858-7.455
		c8.56-1.933,17.395,1.657,22.641,8.836l14.358,20.156c4.142,5.799,11.873,6.903,17.672,3.038
		c5.798-4.142,6.902-11.873,3.037-17.671l-16.015-22.642c3.313-0.552,6.626-1.104,9.664-1.657
		C600.599,252.37,618.822,270.042,639.255,298.757z"/>
</g>
</svg>
