<?xml version="1.0" encoding="utf-8"?>
<!-- Generator: Adobe Illustrator 15.0.0, SVG Export Plug-In . SVG Version: 6.00 Build 0)  -->
<!DOCTYPE svg PUBLIC "-//W3C//DTD SVG 1.1//EN" "http://www.w3.org/Graphics/SVG/1.1/DTD/svg11.dtd">
<svg version="1.1" id="Layer_1" xmlns="http://www.w3.org/2000/svg" xmlns:xlink="http://www.w3.org/1999/xlink" x="0px" y="0px"
	 width="32.938px" height="31.367px" viewBox="0 0 32.938 31.367" enable-background="new 0 0 32.938 31.367" xml:space="preserve">
<g>
	<defs>
		<rect id="SVGID_1_" y="-3" width="38.924" height="36.367"/>
	</defs>
	<clipPath id="SVGID_2_">
		<use xlink:href="#SVGID_1_"  overflow="visible"/>
	</clipPath>
	<path clip-path="url(#SVGID_2_)" fill="#E7660B" d="M29.972,3.009l-0.196-0.217c-1.601-1.772-3.738-2.749-6.018-2.749
		S19.342,1.02,17.74,2.792l-1.535,1.699l-1.536-1.699c-1.6-1.772-3.738-2.749-6.017-2.749c-2.28,0-4.417,0.977-6.017,2.749
		L2.438,3.009C0.866,4.75,0,7.057,0,9.505c0,2.449,0.866,4.755,2.438,6.497c0.003,0.003,0.007,0.007,0.011,0.012l12.953,13.961
		c0.207,0.223,0.499,0.35,0.803,0.35c0.306,0,0.596-0.127,0.804-0.35l12.952-13.961c0.005-0.004,0.008-0.007,0.012-0.012
		c1.571-1.74,2.438-4.048,2.438-6.497C32.41,7.057,31.544,4.75,29.972,3.009 M16.205,27.528l0.292-0.228l-0.292,0.314V27.528z"/>
</g>
</svg>
