<?xml version="1.0" encoding="utf-8"?>
<!-- Generator: Adobe Illustrator 15.0.0, SVG Export Plug-In . SVG Version: 6.00 Build 0)  -->
<!DOCTYPE svg PUBLIC "-//W3C//DTD SVG 1.1//EN" "http://www.w3.org/Graphics/SVG/1.1/DTD/svg11.dtd">
<svg version="1.1" id="Layer_1" xmlns="http://www.w3.org/2000/svg" xmlns:xlink="http://www.w3.org/1999/xlink" x="0px" y="0px"
	 width="32.201px" height="30.123px" viewBox="0 0 32.201 30.123" enable-background="new 0 0 32.201 30.123" xml:space="preserve">
<g>
	<defs>
		<rect id="SVGID_1_" x="-3.674" y="-3.432" width="38.924" height="36.367"/>
	</defs>
	<clipPath id="SVGID_2_">
		<use xlink:href="#SVGID_1_"  overflow="visible"/>
	</clipPath>
	<path clip-path="url(#SVGID_2_)" fill="#E66825" d="M15.787,29.502c-0.296,0-0.58-0.123-0.782-0.342L2.385,15.56
		c-0.003-0.004-0.006-0.008-0.009-0.012C0.844,13.853,0,11.604,0,9.219c0-2.386,0.844-4.633,2.375-6.33l0.192-0.212
		C4.126,0.951,6.208,0,8.43,0c2.221,0,4.303,0.951,5.863,2.678l1.495,1.656l1.497-1.656C18.843,0.951,20.925,0,23.146,0
		s4.303,0.951,5.862,2.678L29.2,2.89c1.532,1.697,2.376,3.944,2.376,6.33c0,2.385-0.844,4.634-2.375,6.329
		c-0.003,0.004-0.007,0.007-0.011,0.012L16.57,29.161C16.369,29.379,16.086,29.502,15.787,29.502 M3.957,14.111l11.831,12.752
		L27.62,14.111c2.434-2.701,2.433-7.09-0.005-9.789L27.424,4.11c-1.15-1.272-2.669-1.974-4.277-1.974
		c-1.609,0-3.129,0.702-4.277,1.974l-2.288,2.534c-0.202,0.224-0.49,0.352-0.793,0.352c-0.302,0-0.591-0.128-0.792-0.352
		L12.707,4.11c-1.149-1.272-2.668-1.974-4.277-1.974c-1.609,0-3.128,0.702-4.277,1.974L3.96,4.322
		C1.523,7.021,1.522,11.411,3.957,14.111"/>
</g>
</svg>
