<?xml version="1.0" encoding="utf-8"?>
<!-- Generator: Adobe Illustrator 15.0.0, SVG Export Plug-In . SVG Version: 6.00 Build 0)  -->
<!DOCTYPE svg PUBLIC "-//W3C//DTD SVG 1.1//EN" "http://www.w3.org/Graphics/SVG/1.1/DTD/svg11.dtd">
<svg version="1.1" id="Layer_1" xmlns="http://www.w3.org/2000/svg" xmlns:xlink="http://www.w3.org/1999/xlink" x="0px" y="0px"
	 width="45.175px" height="44px" viewBox="0 0 45.175 44" enable-background="new 0 0 45.175 44" xml:space="preserve">
<g>
	<defs>
		<rect id="SVGID_1_" width="45.175" height="44"/>
	</defs>
	<clipPath id="SVGID_2_">
		<use xlink:href="#SVGID_1_"  overflow="visible"/>
	</clipPath>
	<path clip-path="url(#SVGID_2_)" fill="#AFAFAF" d="M23.002,28.518c-1.351,0-2.444-0.439-2.444-0.979
		c0-0.544,1.094-0.979,2.444-0.979c1.352,0,2.445,0.435,2.445,0.979C25.447,28.078,24.354,28.518,23.002,28.518 M16.362,19.342
		c-1.212,0-2.201,0.986-2.201,2.2c0,1.213,0.989,2.201,2.201,2.201s2.202-0.988,2.202-2.201
		C18.563,20.328,17.574,19.342,16.362,19.342 M29.644,23.743c1.213,0,2.201-0.988,2.201-2.201c0-1.214-0.988-2.2-2.201-2.2
		c-1.212,0-2.2,0.986-2.2,2.2C27.443,22.755,28.432,23.743,29.644,23.743 M45.003,25.571c-0.134,3.663-8.188,13.564,0,17.23
		l-7.333-2.444c0,1.471,0.486,1.958,0.486,1.958c-5.037,0.73-11.506-0.196-16.376-1.194c-1.981-0.129-3.891-0.572-5.681-1.279
		c0.625,1.523,1.896,3.084,1.896,3.084c-4.035-0.61-6.97-2.688-6.97-2.688l-0.488,2.444C-1.442,38.648-1.15,17.766,1.494,11.515
		C2.835,8.336,5.405,0.636,15.425,3.447c0,0,10.166-9.256,22.245,2.568C40.729,9.015,45.49,12.126,45.003,25.571 M23.031,37.254
		c6.546,0,12.095-4.173,14.089-9.959c0.249,0.114,0.516,0.182,0.798,0.182c1.218,0,2.196-1.122,2.196-2.507
		c0-1.365-0.955-2.473-2.153-2.502c-0.311,0.506-0.659,0.998-1.046,1.461c0.406-1.394,0.63-2.831,0.63-4.254
		c0-0.386-0.028-0.754-0.062-1.122c-3.18,0.775-7.653-0.17-11.826-2.803c-2.158-1.361-3.938-2.984-5.257-4.684
		c-2.348,1.309-4.574,4.031-11.659,6.858c-0.081,0.562-0.133,1.139-0.133,1.75c0,1.423,0.225,2.86,0.635,4.254
		c-0.41-0.486-0.773-0.997-1.093-1.527c0,0.019-0.005,0.048-0.005,0.071c-0.019-0.005-0.042-0.01-0.067-0.01
		c-1.217,0-2.191,1.122-2.191,2.507s0.974,2.507,2.191,2.507c0.306,0,0.593-0.072,0.855-0.196
		C10.928,33.076,16.48,37.254,23.031,37.254"/>
</g>
</svg>
