<?xml version="1.0" encoding="utf-8"?>
<!-- Generator: Adobe Illustrator 18.1.1, SVG Export Plug-In . SVG Version: 6.00 Build 0)  -->
<svg version="1.1" id="Layer_1" xmlns="http://www.w3.org/2000/svg" xmlns:xlink="http://www.w3.org/1999/xlink" x="0px" y="0px"
	 viewBox="0 0 5.1 11.6" enable-background="new 0 0 5.1 11.6" xml:space="preserve">
<g>
	<path fill="#3FA9F5" d="M4.1,10.6c-0.3,0-0.5-0.1-0.7-0.2c-0.1-0.1-0.2-0.3-0.2-0.6c0-0.1,0-0.3,0.1-0.5c0-0.2,0.1-0.4,0.1-0.6
		L4,6.6c0.1-0.2,0.1-0.4,0.1-0.6c0-0.2,0-0.4,0-0.5C4.2,5,4,4.6,3.7,4.3C3.4,4.1,2.9,3.9,2.3,3.9C2,3.9,1.7,4,1.3,4.1
		C0.9,4.2,0.6,4.4,0.2,4.5L0,5.2c0.1,0,0.3-0.1,0.4-0.1C0.6,5,0.8,5,0.9,5C1.2,5,1.4,5,1.6,5.1c0.1,0.1,0.2,0.3,0.2,0.6
		c0,0.2,0,0.3-0.1,0.5c0,0.2-0.1,0.4-0.1,0.6L0.9,8.9C0.9,9.2,0.8,9.4,0.8,9.5c0,0.2,0,0.4,0,0.5c0,0.4,0.2,0.8,0.5,1.1
		c0.3,0.3,0.8,0.4,1.4,0.4c0.4,0,0.7-0.1,1-0.2c0.3-0.1,0.7-0.2,1.2-0.4L5,10.3c-0.1,0-0.2,0.1-0.4,0.1C4.4,10.5,4.2,10.6,4.1,10.6z
		"/>
	<path fill="#3FA9F5" d="M3.7,0c-0.4,0-0.7,0.1-1,0.4C2.4,0.7,2.2,1,2.2,1.4c0,0.4,0.1,0.7,0.4,1c0.3,0.3,0.6,0.4,1,0.4
		c0.4,0,0.7-0.1,1-0.4C5,2,5.1,1.7,5.1,1.4c0-0.4-0.1-0.7-0.4-1C4.4,0.1,4.1,0,3.7,0z"/>
</g>
</svg>
