
<!-- Generator: Adobe Illustrator 18.1.1, SVG Export Plug-In . SVG Version: 6.00 Build 0)  -->
<svg version="1.1" id="Layer_1" xmlns="http://www.w3.org/2000/svg" xmlns:xlink="http://www.w3.org/1999/xlink" x="0px" y="0px"
	 viewBox="0 0 42 21" enable-background="new 0 0 42 21" xml:space="preserve">
<g>
	<path fill="#FFFFFF" d="M0,21C0,9.4,9.4,0,21,0s21,9.4,21,21"/>
	<g>
		<path fill="#3FA9F5" d="M22.7,17.9c-0.4,0-0.6-0.1-0.9-0.3c-0.1-0.1-0.3-0.4-0.3-0.8c0-0.1,0-0.4,0.1-0.6c0-0.3,0.1-0.5,0.1-0.8
			l0.8-2.7c0.1-0.3,0.1-0.5,0.1-0.8s0-0.5,0-0.6c0.1-0.6-0.1-1.2-0.5-1.6c-0.4-0.3-1-0.5-1.8-0.5c-0.4,0-0.8,0.1-1.3,0.3
			c-0.5,0.1-0.9,0.4-1.4,0.5l-0.3,0.9c0.1,0,0.4-0.1,0.5-0.1c0.3-0.1,0.5-0.1,0.6-0.1c0.4,0,0.6,0,0.9,0.1c0.1,0.1,0.3,0.4,0.3,0.8
			c0,0.3,0,0.4-0.1,0.6c0,0.3-0.1,0.5-0.1,0.8l-0.9,2.7c0,0.4-0.1,0.6-0.1,0.8c0,0.3,0,0.5,0,0.6c0,0.5,0.3,1,0.6,1.4
			c0.4,0.4,1,0.5,1.8,0.5c0.5,0,0.9-0.1,1.3-0.3s0.9-0.3,1.6-0.5l0.1-0.8c-0.1,0-0.3,0.1-0.5,0.1C23.1,17.8,22.8,17.9,22.7,17.9z"/>
		<path fill="#3FA9F5" d="M22.2,4.2c-0.5,0-0.9,0.1-1.3,0.5c-0.4,0.4-0.6,0.8-0.6,1.3s0.1,0.9,0.5,1.3c0.4,0.4,0.8,0.5,1.3,0.5
			c0.5,0,0.9-0.1,1.3-0.5C23.8,6.8,24,6.4,24,6c0-0.5-0.1-0.9-0.5-1.3C23.1,4.3,22.7,4.2,22.2,4.2z"/>
	</g>
</g>
</svg>
