<?xml version="1.0" encoding="utf-8"?>
<!-- Generator: Adobe Illustrator 13.0.0, SVG Export Plug-In . SVG Version: 6.00 Build 14948)  -->
<!DOCTYPE svg PUBLIC "-//W3C//DTD SVG 1.1//EN" "http://www.w3.org/Graphics/SVG/1.1/DTD/svg11.dtd">
<svg version="1.1" id="Layer_1" xmlns="http://www.w3.org/2000/svg" xmlns:xlink="http://www.w3.org/1999/xlink" x="0px" y="0px"
	 width="42px" height="21px" viewBox="285 385.5 42 21" enable-background="new 285 385.5 42 21" xml:space="preserve">
<g>
	<path fill="#3FA9F5" d="M285,406.5c0-11.6,9.4-21,21-21s21,9.4,21,21"/>
	<g>
		<path fill="#F9F9F9" d="M307.7,403.399c-0.399,0-0.601-0.101-0.901-0.299C306.7,403,306.5,402.701,306.5,402.3
			c0-0.099,0-0.399,0.1-0.601c0-0.299,0.101-0.498,0.101-0.799l0.799-2.701c0.101-0.299,0.101-0.499,0.101-0.799
			c0-0.301,0-0.501,0-0.602c0.101-0.598-0.101-1.198-0.5-1.599c-0.399-0.3-1-0.5-1.8-0.5c-0.399,0-0.8,0.1-1.3,0.3
			c-0.5,0.101-0.9,0.4-1.4,0.5l-0.299,0.899c0.1,0,0.4-0.1,0.5-0.1c0.3-0.099,0.5-0.099,0.6-0.099c0.4,0,0.6,0,0.9,0.099
			c0.1,0.1,0.3,0.4,0.3,0.8c0,0.301,0,0.399-0.1,0.601c0,0.301-0.1,0.499-0.1,0.8l-0.9,2.701c0,0.398-0.101,0.599-0.101,0.799
			c0,0.3,0,0.5,0,0.601c0,0.5,0.3,0.999,0.6,1.399c0.4,0.4,1,0.499,1.799,0.499c0.5,0,0.901-0.099,1.3-0.299s0.901-0.301,1.602-0.5
			l0.099-0.801c-0.099,0-0.3,0.101-0.5,0.101C308.1,403.299,307.8,403.399,307.7,403.399z"/>
		<path fill="#F9F9F9" d="M307.2,389.7c-0.5,0-0.9,0.1-1.3,0.5c-0.401,0.4-0.601,0.8-0.601,1.299c0,0.5,0.1,0.901,0.5,1.3
			c0.401,0.4,0.8,0.5,1.3,0.5s0.901-0.1,1.301-0.5c0.399-0.5,0.6-0.9,0.6-1.3c0-0.5-0.1-0.899-0.5-1.299S307.7,389.7,307.2,389.7z"
			/>
	</g>
</g>
</svg>
