<?xml version="1.0" encoding="utf-8"?>
<!-- Generator: Adobe Illustrator 21.1.0, SVG Export Plug-In . SVG Version: 6.00 Build 0)  -->
<svg version="1.1" id="Layer_1" xmlns="http://www.w3.org/2000/svg" xmlns:xlink="http://www.w3.org/1999/xlink" x="0px" y="0px"
	 viewBox="0 0 108.5 63.5" style="enable-background:new 0 0 108.5 63.5;" xml:space="preserve">
<style type="text/css">
	.st0{fill:#16AEEC;}
	.st1{fill:#FFFFFF;}
</style>
<g>
	<circle class="st0" cx="52.7" cy="55.1" r="44.8"/>
	<g>
		<path class="st1" d="M57.4,55.2c-1,0-1.8-0.2-2.2-0.5c-0.4-0.3-0.6-1-0.6-1.9c0-0.4,0.1-0.9,0.2-1.7c0.1-0.7,0.3-1.4,0.5-1.9
			l2-7.1c0.2-0.6,0.3-1.3,0.4-2.1s0.1-1.3,0.1-1.6c0-1.5-0.5-2.7-1.6-3.6c-1-0.9-2.5-1.4-4.5-1.4c-1.1,0-2.2,0.2-3.4,0.6
			c-1.2,0.4-2.5,0.8-3.8,1.4L44,37.6c0.4-0.1,0.8-0.3,1.4-0.5c0.5-0.2,1.1-0.2,1.6-0.2c1.1,0,1.8,0.2,2.1,0.5c0.4,0.4,0.6,1,0.6,1.9
			c0,0.5-0.1,1.1-0.2,1.7c-0.1,0.6-0.3,1.2-0.4,1.9l-2,7.1c-0.2,0.7-0.3,1.4-0.4,2s-0.1,1.2-0.1,1.7c0,1.5,0.5,2.7,1.6,3.6
			c1.1,1,2.6,1.4,4.5,1.4c1.3,0,2.4-0.2,3.3-0.5c1-0.3,2.2-0.8,3.8-1.4l0.5-2.2c-0.3,0.1-0.7,0.3-1.3,0.5
			C58.4,55.1,57.9,55.2,57.4,55.2"/>
		<path class="st1" d="M56.1,20.3c-1.3,0-2.4,0.4-3.4,1.3c-0.9,0.9-1.4,1.9-1.4,3.2c0,1.2,0.5,2.3,1.4,3.2s2.1,1.3,3.4,1.3
			s2.4-0.4,3.4-1.3c0.9-0.9,1.4-1.9,1.4-3.2c0-1.2-0.5-2.3-1.4-3.2C58.5,20.8,57.4,20.3,56.1,20.3"/>
	</g>
</g>
</svg>
