<svg id="Capa_1" data-name="Capa 1" xmlns="http://www.w3.org/2000/svg" viewBox="0 0 503.13 403.89"><defs><style>.cls-1{fill:#16aeec;}.cls-2{fill:#fff;}</style></defs><title>speech-bubbles</title><path class="cls-1" d="M310.43,325.73q46.39-19.56,73.23-53.25t26.83-73.37q0-39.69-26.84-73.38T310.42,72.48Q264,52.92,209.49,52.93T108.57,72.48Q62.17,92,35.34,125.73T8.5,199.11q0,34,20.28,64T84.45,313.6q-2.85,6.86-5.85,12.57a72.37,72.37,0,0,1-7.14,11q-4.14,5.29-6.42,8.27t-7.42,8.42Q52.47,359.28,51,361c0-.19-.38.24-1.14,1.29s-1.19,1.52-1.28,1.43-.48.37-1.14,1.42l-1,1.57-.72,1.42a6.11,6.11,0,0,0-.57,1.71,11.17,11.17,0,0,0-.14,1.85,5.75,5.75,0,0,0,.29,1.85,9.46,9.46,0,0,0,3.28,6,8.92,8.92,0,0,0,5.85,2.28h.86a239.39,239.39,0,0,0,24.55-4.57,240.08,240.08,0,0,0,79.37-36.54,286.72,286.72,0,0,0,50.25,4.57Q264,345.29,310.43,325.73Z" transform="translate(-8.5 -52.93)"/><path class="cls-1" d="M491.35,338.17q20.28-29.83,20.27-64.09,0-35.12-21.42-65.68T432,157.58A146.93,146.93,0,0,1,419.4,273.49Q400.27,307.75,364.58,334q-33.12,24-75.38,36.83A301.64,301.64,0,0,1,201,383.69q-8.56,0-25.12-1.14,57.38,37.68,134.76,37.68a286.86,286.86,0,0,0,50.25-4.57A228,228,0,0,0,464.8,456.79a8.61,8.61,0,0,0,6.28-2,10.55,10.55,0,0,0,3.71-6.27c-.09-1.14,0-1.77.29-1.86s.23-.71-.14-1.85l-.57-1.71-.71-1.42a13.68,13.68,0,0,0-1-1.57,12.28,12.28,0,0,0-1.14-1.43c-.28-.28-.7-.76-1.28-1.42s-1-1.09-1.14-1.28q-1.43-1.71-6.56-7.14t-7.42-8.42q-2.28-3-6.42-8.28a72.21,72.21,0,0,1-7.14-11q-3-5.71-5.85-12.56Q471.09,368,491.35,338.17Z" transform="translate(-8.5 -52.93)"/><path class="cls-2" d="M204.43,237a12.82,12.82,0,0,0,12.77-11.75l8.66-103.49a21.51,21.51,0,1,0-42.88,0l8.66,103.49A12.82,12.82,0,0,0,204.43,237Z" transform="translate(-8.5 -52.93)"/><rect class="cls-2" x="181.5" y="213.07" width="28" height="28" rx="8" ry="8"/></svg>