<?xml version="1.0" encoding="utf-8"?>
<!-- Generator: Adobe Illustrator 16.0.0, SVG Export Plug-In . SVG Version: 6.00 Build 0)  -->
<!DOCTYPE svg PUBLIC "-//W3C//DTD SVG 1.1//EN" "http://www.w3.org/Graphics/SVG/1.1/DTD/svg11.dtd">
<svg version="1.1" id="Livello_1" xmlns="http://www.w3.org/2000/svg" xmlns:xlink="http://www.w3.org/1999/xlink" x="0px" y="0px"
	 width="30px" height="30px" viewBox="0 0 30 30" enable-background="new 0 0 30 30" xml:space="preserve">
<g>
	<path fill="#EA6F23" d="M17.611,17.832c1.527-0.641,2.729-1.52,3.613-2.625c0.883-1.107,1.322-2.314,1.322-3.619
		c0-1.305-0.439-2.512-1.322-3.619c-0.884-1.108-2.086-1.983-3.613-2.627c-1.524-0.643-3.184-0.965-4.978-0.965
		c-1.794,0-3.453,0.322-4.979,0.965C6.13,5.985,4.926,6.86,4.043,7.969C3.161,9.077,2.72,10.283,2.72,11.587
		c0,1.117,0.333,2.169,1,3.155s1.583,1.816,2.746,2.492c-0.093,0.227-0.189,0.432-0.289,0.621c-0.099,0.188-0.216,0.367-0.352,0.541
		c-0.137,0.174-0.242,0.309-0.317,0.408c-0.075,0.098-0.197,0.235-0.366,0.416c-0.169,0.178-0.277,0.295-0.324,0.352
		c0-0.01-0.019,0.012-0.056,0.063c-0.038,0.052-0.059,0.074-0.063,0.07c-0.005-0.006-0.023,0.019-0.057,0.069
		c-0.033,0.052-0.05,0.076-0.05,0.076l-0.035,0.07c-0.014,0.027-0.023,0.057-0.028,0.086c-0.004,0.027-0.007,0.059-0.007,0.09
		c0,0.033,0.004,0.064,0.015,0.092c0.018,0.123,0.072,0.222,0.162,0.295C4.788,20.563,4.884,20.6,4.987,20.6H5.03
		c0.469-0.065,0.873-0.141,1.211-0.225c1.446-0.377,2.75-0.977,3.915-1.805c0.845,0.15,1.671,0.227,2.479,0.227
		C14.428,18.799,16.087,18.475,17.611,17.832z M12.322,6.721h0.64c0.539,0,0.563,0.326,0.539,0.928l-0.226,4.298
		c-0.025,0.438-0.125,0.802-0.639,0.802c-0.514,0-0.614-0.364-0.639-0.802l-0.226-4.298C11.733,7.047,11.783,6.721,12.322,6.721z
		 M11.771,15.757v-0.326c0-0.478,0.226-0.714,0.701-0.714h0.326c0.476,0,0.702,0.237,0.702,0.714v0.326
		c0,0.476-0.226,0.714-0.702,0.714h-0.326C11.997,16.471,11.771,16.232,11.771,15.757z"/>
	<path fill="#EA6F23" d="M26.721,18.457c0.666-0.982,1-2.037,1-3.162c0-1.156-0.354-2.236-1.057-3.241
		c-0.705-1.004-1.663-1.84-2.874-2.507c0.216,0.705,0.325,1.418,0.325,2.142c0,1.258-0.314,2.45-0.944,3.577
		c-0.629,1.126-1.53,2.123-2.704,2.985c-1.089,0.787-2.328,1.394-3.718,1.815c-1.39,0.423-2.84,0.634-4.352,0.634
		c-0.281,0-0.694-0.019-1.239-0.056c1.887,1.238,4.103,1.857,6.646,1.857c0.809,0,1.635-0.074,2.479-0.225
		c1.161,0.826,2.468,1.428,3.913,1.803c0.338,0.084,0.742,0.16,1.212,0.227c0.112,0.006,0.217-0.024,0.31-0.1
		c0.094-0.076,0.155-0.18,0.184-0.311c-0.004-0.056,0-0.088,0.015-0.09c0.015-0.007,0.011-0.035-0.006-0.095
		c-0.021-0.055-0.03-0.084-0.03-0.084l-0.033-0.069c-0.011-0.021-0.027-0.045-0.051-0.076c-0.021-0.033-0.041-0.058-0.056-0.072
		c-0.015-0.012-0.035-0.037-0.063-0.068c-0.027-0.033-0.047-0.055-0.056-0.064c-0.047-0.057-0.156-0.174-0.324-0.352
		c-0.169-0.178-0.291-0.316-0.366-0.414c-0.074-0.1-0.181-0.236-0.315-0.41c-0.138-0.174-0.253-0.354-0.353-0.543
		c-0.099-0.186-0.195-0.393-0.289-0.619C25.139,20.266,26.053,19.438,26.721,18.457z"/>
</g>
</svg>
