<?xml version="1.0" encoding="utf-8"?>
<!-- Generator: Adobe Illustrator 18.1.1, SVG Export Plug-In . SVG Version: 6.00 Build 0)  -->
<svg version="1.1" id="Layer_1" xmlns="http://www.w3.org/2000/svg" xmlns:xlink="http://www.w3.org/1999/xlink" x="0px" y="0px"
	 viewBox="0 0 130 145.6" enable-background="new 0 0 130 145.6" xml:space="preserve">
<g>
	<g>
		<g>
			<defs>
				<rect id="SVGID_1_" x="0" y="0" width="97.1" height="145.6"/>
			</defs>
			<clipPath id="SVGID_2_">
				<use xlink:href="#SVGID_1_"  overflow="visible"/>
			</clipPath>
			<g clip-path="url(#SVGID_2_)">
				<g>
					<defs>
						<path id="SVGID_3_" d="M4.4,61.5l0-0.3C4.3,61.3,4.4,61.4,4.4,61.5 M48.6,70.4c-23.9,0-43.4-4.8-44.2-8.9L8.5,101
							c0,0,2.7,7,41,6.8c37.5,0,38.8-6.8,38.8-6.8l4.4-40.4C91.9,64.7,72.5,70.4,48.6,70.4 M92.8,60.6c0-0.1,0-0.2,0-0.3L92.8,60.6z
							"/>
					</defs>
					<clipPath id="SVGID_4_">
						<use xlink:href="#SVGID_3_"  overflow="visible"/>
					</clipPath>
					
						<linearGradient id="SVGID_5_" gradientUnits="userSpaceOnUse" x1="-409.3212" y1="210.6882" x2="-408.3212" y2="210.6882" gradientTransform="matrix(88.4907 0 0 88.4907 36225.4688 -18559.832)">
						<stop  offset="0" style="stop-color:#FFFFFF"/>
						<stop  offset="0.2088" style="stop-color:#F18A3D"/>
						<stop  offset="0.7775" style="stop-color:#D36409"/>
						<stop  offset="1" style="stop-color:#F7B077"/>
					</linearGradient>
					<rect x="4.3" y="60.3" clip-path="url(#SVGID_4_)" fill="url(#SVGID_5_)" width="88.5" height="47.7"/>
				</g>
				<g>
					<defs>
						<rect id="SVGID_6_" x="0" y="0" width="97.1" height="145.6"/>
					</defs>
					<clipPath id="SVGID_7_">
						<use xlink:href="#SVGID_6_"  overflow="visible"/>
					</clipPath>
					<g clip-path="url(#SVGID_7_)">
						<g>
							<defs>
								<path id="SVGID_8_" d="M49.6,107.8c-29.5,0.3-40.7-6.3-40.7-6.3l3.3,33c1.6,3.8,6.3,11.1,36.5,11.2h0.6c0.3,0,0.6,0,0.9,0
									c31.4-0.2,34.6-11.2,34.6-11.2l3.4-32.5l0.1-1C85.3,107.5,49.6,107.8,49.6,107.8"/>
							</defs>
							<clipPath id="SVGID_9_">
								<use xlink:href="#SVGID_8_"  overflow="visible"/>
							</clipPath>
							
								<linearGradient id="SVGID_10_" gradientUnits="userSpaceOnUse" x1="-408.7926" y1="210.95" x2="-407.7926" y2="210.95" gradientTransform="matrix(79.502 0 0 79.502 32508.7344 -16647.6387)">
								<stop  offset="0" style="stop-color:#FFFFFF"/>
								<stop  offset="0.3332" style="stop-color:#EC9A00"/>
								<stop  offset="0.7496" style="stop-color:#D68900"/>
								<stop  offset="1" style="stop-color:#F4B85B"/>
							</linearGradient>
							<rect x="8.9" y="101" clip-path="url(#SVGID_9_)" fill="url(#SVGID_10_)" width="79.5" height="44.7"/>
						</g>
						<g>
							<defs>
								<rect id="SVGID_11_" x="0" y="0" width="97.1" height="145.6"/>
							</defs>
							<clipPath id="SVGID_12_">
								<use xlink:href="#SVGID_11_"  overflow="visible"/>
							</clipPath>
							<g clip-path="url(#SVGID_12_)">
								<g>
									<defs>
										<path id="SVGID_13_" d="M49.8,33C5.3,33,0,24.8,0,24.8l4.3,38.1c0,0,0.9,7.5,45.2,7.5c44.3,0,43.2-7.5,43.2-7.5l4.3-38.1
											C97.1,24.8,94.3,33,49.8,33"/>
									</defs>
									<clipPath id="SVGID_14_">
										<use xlink:href="#SVGID_13_"  overflow="visible"/>
									</clipPath>
									
										<linearGradient id="SVGID_15_" gradientUnits="userSpaceOnUse" x1="-409.7359" y1="210.4805" x2="-408.7359" y2="210.4805" gradientTransform="matrix(97.0928 0 0 97.0928 39782.4023 -20388.5332)">
										<stop  offset="0" style="stop-color:#FFFFFF"/>
										<stop  offset="0.3741" style="stop-color:#00A1E5"/>
										<stop  offset="0.593" style="stop-color:#0089C1"/>
										<stop  offset="0.7845" style="stop-color:#0073A2"/>
										<stop  offset="0.9838" style="stop-color:#00B7ED"/>
										<stop  offset="1" style="stop-color:#00B7ED"/>
									</linearGradient>
									<rect x="0" y="24.8" clip-path="url(#SVGID_14_)" fill="url(#SVGID_15_)" width="97.1" height="45.6"/>
								</g>
								<g>
									<defs>
										<rect id="SVGID_16_" x="0" y="0" width="97.1" height="145.6"/>
									</defs>
									<clipPath id="SVGID_17_">
										<use xlink:href="#SVGID_16_"  overflow="visible"/>
									</clipPath>
									<g clip-path="url(#SVGID_17_)">
										<g>
											<defs>
												<path id="SVGID_18_" d="M0.5,21c0,5,21.6,9.1,48.1,9.1c26.6,0,48.1-4.1,48.1-9.1c0-5-21.6-9.1-48.1-9.1
													C22.1,12,0.5,16,0.5,21"/>
											</defs>
											<clipPath id="SVGID_19_">
												<use xlink:href="#SVGID_18_"  overflow="visible"/>
											</clipPath>
											
												<linearGradient id="SVGID_20_" gradientUnits="userSpaceOnUse" x1="-409.7003" y1="210.498" x2="-408.7003" y2="210.498" gradientTransform="matrix(96.2861 0 0 96.2861 39448.9609 -20246.9844)">
												<stop  offset="0" style="stop-color:#010102"/>
												<stop  offset="1.810000e-002" style="stop-color:#121216"/>
												<stop  offset="4.300000e-002" style="stop-color:#2C2B30"/>
												<stop  offset="7.100000e-002" style="stop-color:#48474B"/>
												<stop  offset="0.1014" style="stop-color:#646266"/>
												<stop  offset="0.1351" style="stop-color:#7D7B7E"/>
												<stop  offset="0.1731" style="stop-color:#939294"/>
												<stop  offset="0.2175" style="stop-color:#A5A5A6"/>
												<stop  offset="0.2723" style="stop-color:#B3B2B3"/>
												<stop  offset="0.3491" style="stop-color:#BBBABA"/>
												<stop  offset="0.5617" style="stop-color:#BDBDBC"/>
												<stop  offset="0.605" style="stop-color:#A8A8A8"/>
												<stop  offset="0.7011" style="stop-color:#7D7D7D"/>
												<stop  offset="0.7918" style="stop-color:#585857"/>
												<stop  offset="0.8745" style="stop-color:#3A3A39"/>
												<stop  offset="0.9466" style="stop-color:#161616"/>
												<stop  offset="1" style="stop-color:#000000"/>
											</linearGradient>
											<rect x="0.5" y="12" clip-path="url(#SVGID_19_)" fill="url(#SVGID_20_)" width="96.3" height="18.1"/>
										</g>
										<g>
											<defs>
												<rect id="SVGID_21_" x="0" y="0" width="97.1" height="145.6"/>
											</defs>
											<clipPath id="SVGID_22_">
												<use xlink:href="#SVGID_21_"  overflow="visible"/>
											</clipPath>
											<g clip-path="url(#SVGID_22_)">
												<g>
													<defs>
														<rect id="SVGID_23_" x="0" y="0" width="97.1" height="145.6"/>
													</defs>
													<clipPath id="SVGID_24_">
														<use xlink:href="#SVGID_23_"  overflow="visible"/>
													</clipPath>
													<g clip-path="url(#SVGID_24_)">
														<g opacity="0.3">
															<g>
																<defs>
																	<rect id="SVGID_25_" x="0" y="24.8" width="38.1" height="120.5"/>
																</defs>
																<clipPath id="SVGID_26_">
																	<use xlink:href="#SVGID_25_"  overflow="visible"/>
																</clipPath>
																<path clip-path="url(#SVGID_26_)" fill="#FFFFFF" d="M12.9,30.1c0,0,12.2,2.6,13.5,22.3
																	c1.3,19.6-0.5,89.2,11.6,92.9c0,0-23.7-1.2-25.8-10.8L0,24.8C6.3,28.1,5.3,28.7,12.9,30.1"/>
															</g>
														</g>
														<g>
															<defs>
																<rect id="SVGID_27_" x="0" y="0" width="97.1" height="145.6"/>
															</defs>
															<clipPath id="SVGID_28_">
																<use xlink:href="#SVGID_27_"  overflow="visible"/>
															</clipPath>
															<g clip-path="url(#SVGID_28_)">
																<g opacity="0.3">
																	<g>
																		<defs>
																			<rect id="SVGID_29_" x="58.7" y="25" width="38.3" height="120.3"/>
																		</defs>
																		<clipPath id="SVGID_30_">
																			<use xlink:href="#SVGID_29_"  overflow="visible"/>
																		</clipPath>
																		<path clip-path="url(#SVGID_30_)" fill="#FFFFFF" d="M87.9,29.6c0,0-1.7,5.8-3,25.4c-1.3,19.6,0.7,84.7-26.1,90.2
																			c0,0,23.7-1.2,25.8-10.8L97.1,25C95.1,27,93.4,28.2,87.9,29.6"/>
																	</g>
																</g>
																<g>
																	<defs>
																		<rect id="SVGID_31_" x="0" y="0" width="97.1" height="145.6"/>
																	</defs>
																	<clipPath id="SVGID_32_">
																		<use xlink:href="#SVGID_31_"  overflow="visible"/>
																	</clipPath>
																	<path clip-path="url(#SVGID_32_)" fill="#979696" d="M82.5,0.2c-3.5-0.9-7.1,1.2-8,4.7l-6.1,24.2l14-1.6l4.8-19.3
																		C88.1,4.7,86,1.1,82.5,0.2"/>
																</g>
															</g>
														</g>
													</g>
												</g>
											</g>
										</g>
									</g>
								</g>
							</g>
						</g>
					</g>
				</g>
			</g>
		</g>
	</g>
	<g>
		<g>
			<path fill="#EC6E08" d="M129.7,79.9v4h-8.2V92h8.2v4h-19.8v-4h8.5v-8.1h-8.5v-4H129.7z"/>
			<path fill="#EC6E08" d="M121.6,60.3c2.4,0,4.5,0.8,6,2.3c1.6,1.5,2.4,3.5,2.4,6c0,2.4-0.8,4.4-2.4,6c-1.6,1.5-3.6,2.3-6,2.3H118
				c-2.4,0-4.4-0.8-6-2.3c-1.6-1.5-2.4-3.5-2.4-5.9c0-2.5,0.8-4.5,2.4-6c1.6-1.5,3.6-2.3,6-2.3H121.6z M118,64.2
				c-1.5,0-2.8,0.4-3.8,1.2c-1,0.8-1.5,1.8-1.5,3.2c0,1.3,0.5,2.4,1.5,3.1s2.3,1.1,3.8,1.1h3.6c1.6,0,2.8-0.4,3.8-1.1
				c1-0.8,1.5-1.8,1.5-3.2c0-1.4-0.5-2.4-1.5-3.2s-2.3-1.1-3.8-1.1H118z"/>
			<path fill="#EC6E08" d="M124.5,46.9L124.5,46.9l-14.6-5.2v-5.2h19.8v4h-13.5l0,0.1l13.5,4.9v2.7l-13.6,4.9l0,0.1h13.5v4h-19.8
				v-5.2L124.5,46.9z"/>
			<path fill="#EC6E08" d="M121,21.6v7.3h5.7v-8.7h3v12.7h-19.8V20.2h3.1v8.7h5v-7.3H121z"/>
		</g>
	</g>
</g>
</svg>
