<?xml version="1.0" encoding="utf-8"?>
<!-- Generator: Adobe Illustrator 15.0.0, SVG Export Plug-In . SVG Version: 6.00 Build 0)  -->
<!DOCTYPE svg PUBLIC "-//W3C//DTD SVG 1.1//EN" "http://www.w3.org/Graphics/SVG/1.1/DTD/svg11.dtd">
<svg version="1.1" id="Layer_1" xmlns="http://www.w3.org/2000/svg" xmlns:xlink="http://www.w3.org/1999/xlink" x="0px" y="0px"
	 width="40.877px" height="21.974px" viewBox="0 0 40.877 21.974" enable-background="new 0 0 40.877 21.974" xml:space="preserve">
<g>
	<defs>
		<rect id="SVGID_1_" width="40.877" height="21.974"/>
	</defs>
	<clipPath id="SVGID_2_">
		<use xlink:href="#SVGID_1_"  overflow="visible"/>
	</clipPath>
	<path clip-path="url(#SVGID_2_)" fill="#E7660B" d="M38.979,0H1.903C0.854,0,0,0.854,0,1.904c0,1.043,0.855,1.898,1.904,1.898
		h37.075c1.049,0,1.898-0.855,1.898-1.898C40.877,0.854,40.027,0,38.979,0"/>
	<path clip-path="url(#SVGID_2_)" fill="#E7660B" d="M38.979,9.086H1.903C0.854,9.086,0,9.94,0,10.99
		c0,1.043,0.855,1.898,1.904,1.898h37.075c1.049,0,1.898-0.855,1.898-1.898C40.877,9.94,40.027,9.086,38.979,9.086"/>
	<path clip-path="url(#SVGID_2_)" fill="#E7660B" d="M38.979,18.172H1.903C0.854,18.172,0,19.026,0,20.077
		c0,1.043,0.855,1.897,1.904,1.897h37.075c1.049,0,1.898-0.854,1.898-1.897C40.877,19.026,40.027,18.172,38.979,18.172"/>
</g>
</svg>
