<?xml version="1.0" encoding="utf-8"?>
<!-- Generator: Adobe Illustrator 21.1.0, SVG Export Plug-In . SVG Version: 6.00 Build 0)  -->
<svg version="1.1" id="Layer_1" xmlns="http://www.w3.org/2000/svg" xmlns:xlink="http://www.w3.org/1999/xlink" x="0px" y="0px"
	 viewBox="0 0 230.9 217.3" style="enable-background:new 0 0 230.9 217.3;" xml:space="preserve">
<style type="text/css">
	.st0{clip-path:url(#SVGID_2_);fill:#A2B2B8;}
	.st1{clip-path:url(#SVGID_2_);}
	.st2{fill:#A2B2B8;}
	.st3{font-family:'DS-Digital-Bold';}
	.st4{font-size:48.8959px;}
	.st5{clip-path:url(#SVGID_2_);fill:none;stroke:#A2B2B8;stroke-miterlimit:10;}
</style>
<g>
	<defs>
		<rect id="SVGID_1_" width="230.9" height="217.3"/>
	</defs>
	<clipPath id="SVGID_2_">
		<use xlink:href="#SVGID_1_"  style="overflow:visible;"/>
	</clipPath>
	<path class="st0" d="M79.4,83.9c0-1.6-1.3-2.9-2.9-2.9H56.9c-1.6,0-2.9,1.3-2.9,2.9v19.5c0,1.6,1.3,2.9,2.9,2.9h19.5
		c1.6,0,2.9-1.3,2.9-2.9L79.4,83.9L79.4,83.9z"/>
	<path class="st0" d="M113.2,83.9c0-1.6-1.3-2.9-2.9-2.9H90.7c-1.6,0-2.9,1.3-2.9,2.9v19.5c0,1.6,1.3,2.9,2.9,2.9h19.5
		c1.6,0,2.9-1.3,2.9-2.9V83.9z"/>
	<path class="st0" d="M147,83.9c0-1.6-1.3-2.9-2.9-2.9h-19.5c-1.6,0-2.9,1.3-2.9,2.9v19.5c0,1.6,1.3,2.9,2.9,2.9h19.5
		c1.6,0,2.9-1.3,2.9-2.9L147,83.9L147,83.9z"/>
	<path class="st0" d="M79.4,117.9c0-1.6-1.3-2.9-2.9-2.9H56.9c-1.6,0-2.9,1.3-2.9,2.9v19.5c0,1.6,1.3,2.9,2.9,2.9h19.5
		c1.6,0,2.9-1.3,2.9-2.9L79.4,117.9L79.4,117.9z"/>
	<path class="st0" d="M113.2,117.9c0-1.6-1.3-2.9-2.9-2.9H90.7c-1.6,0-2.9,1.3-2.9,2.9v19.5c0,1.6,1.3,2.9,2.9,2.9h19.5
		c1.6,0,2.9-1.3,2.9-2.9V117.9z"/>
	<path class="st0" d="M147,117.9c0-1.6-1.3-2.9-2.9-2.9h-19.5c-1.6,0-2.9,1.3-2.9,2.9v19.5c0,1.6,1.3,2.9,2.9,2.9h19.5
		c1.6,0,2.9-1.3,2.9-2.9L147,117.9L147,117.9z"/>
	<path class="st0" d="M76.5,149H56.9c-1.6,0-2.9,1.3-2.9,2.9v19.5c0,1.6,1.3,2.9,2.9,2.9h19.5c1.6,0,2.9-1.3,2.9-2.9v-19.5
		C79.4,150.3,78.1,149,76.5,149"/>
	<path class="st0" d="M97.3,149h-5.7c-2.5,0-3.7,1.3-3.7,2.9v19.5c0,1.6,1.3,2.9,2.9,2.9h19.5c1.6,0,2.9-1.3,2.9-2.9L97.3,149z"/>
	<path class="st0" d="M180.8,148.8c10.4,14.6,7.5,24.9,18,39.6c-13.2,9.4-26.5,18.9-40.5,28.9c-21.8-16.3-40.7-21.5-46.8-23.5
		c-5.8-2-9.5-5.7-8.3-10.3c1.3-4.7,6.2-6.1,10.3-5.9c6.1,0.3,11.1,2.1,11.1,2.1l-28.2-39.6c-2.5-3.5-1.7-8.4,1.8-11
		c3.5-2.5,8.4-1.7,11,1.8l19.1,26.8c0.9,1.3,2.7,1.6,4,0.7c1.3-0.9,1.6-2.7,0.7-4l-4.7-6.6c2.1-0.5,4.7-1.2,7.6-1.9
		c2-0.5,4.1,0.3,5.3,2l3.9,5.4c0.9,1.3,2.7,1.6,4,0.7c1.3-0.9,1.6-2.7,0.7-4l-4.5-6.2c2.5-0.6,5-1.1,7.4-1.7c2-0.4,4,0.4,5.1,2
		l3.3,4.6c0.9,1.3,2.7,1.6,4,0.7c1.3-0.9,1.6-2.7,0.7-4l-3.7-5.1c0.7-0.1,1.5-0.3,2.2-0.4C172.1,138.3,176.2,142.3,180.8,148.8"/>
	<g class="st1">
		<text transform="matrix(1 0 0 1 59.0019 51.7871)" class="st2 st3 st4">9,50</text>
	</g>
	<rect x="54" y="7.3" class="st5" width="92" height="55"/>
</g>
</svg>
