<?xml version="1.0" encoding="utf-8"?>
<!-- Generator: Adobe Illustrator 21.1.0, SVG Export Plug-In . SVG Version: 6.00 Build 0)  -->
<svg version="1.1" id="Layer_1" xmlns="http://www.w3.org/2000/svg" xmlns:xlink="http://www.w3.org/1999/xlink" x="0px" y="0px"
	 viewBox="0 0 230.9 217.3" style="enable-background:new 0 0 230.9 217.3;" xml:space="preserve">
<style type="text/css">
	.st0{fill-rule:evenodd;clip-rule:evenodd;fill:#A2B2B8;}
</style>
<g>
	<defs>
		<rect id="SVGID_1_" width="230.9" height="217.3"/>
	</defs>
	<clipPath id="SVGID_2_">
		<use xlink:href="#SVGID_1_"  style="overflow:visible;"/>
	</clipPath>
</g>
<path class="st0" d="M83.9,94.1c-0.1-0.5-0.3-1-0.4-1.5c-0.5-2.4-0.6-4.6-0.3-6.4c0.4-5.9,3.5-11.4,7.5-13.7
	c5.7,0.6,10.4,2.6,14.5,5.4c1.5-3.3,2.3-7,2.3-10.9c0-15.1-12.2-27.3-27.3-27.3C65,39.7,52.7,52,52.7,67.1
	c0,15.1,12.2,27.3,27.3,27.3C81.3,94.4,82.6,94.3,83.9,94.1z"/>
<g>
	<path class="st0" d="M103.7,125.9c-1.5,4.1-8.2,7-7.4,10.7C105.3,138.9,111.7,128.4,103.7,125.9z"/>
	<path class="st0" d="M102.1,123.4c-2.8-1-3.1-4.6-6.6-5c-2,4.7-7.3,5.9-12.4,7.4C84.6,141.8,99,130.9,102.1,123.4z"/>
	<path class="st0" d="M86.4,105.2c-5.2,2.3-11,11.8-4.1,16.5C98.5,122.1,91.5,112,86.4,105.2z"/>
	<path class="st0" d="M204.7,198.5v-3.6c0.2-7.8-2.4-21.1-3.5-32.7c-0.9-9.3-2.5-18.8-3.3-27.3c-1.1-11.6,0.9-27.2-2.5-37.2
		c-3.1-9.2-22.9-17.6-30.6-22.3c-6.5-3.9-22.4-17-30.6-15.7c-8.7,1.4-15.4,17.4-23.1,19.8c3.1,4.6,6.3,9.1,10.7,12.4
		c6-2.3,9.6-6.9,14-10.7c9.2,6.9,16.1,14.1,24,23.1c8.1,9.3,14.3,15.1,9.9,32.2c-11.1-2.3-18.5-3-25.6-8.3
		c-18.6-13.8-24-49.8-52-52.9c-3.9,2.3-7.1,7.8-7.5,13.7c-0.2,1.8-0.1,4,0.3,6.4c0.5,2.4,1.3,4.5,2.2,6c0,0.1,0,0.2,0,0.3
		c6.8,12.8,19.3,20.2,27.3,30.6c7.9,10.3,6.3,23.7,11.6,38c5,13.6,14.9,24.7,24,34.7c0.2,2.6-0.6,6.1,0.8,7.4
		c19.9-0.2,36.4,0.4,51.8-0.8l2-0.1v0h0.1v-11.8C205.1,199.5,204.9,198.9,204.7,198.5z"/>
</g>
<rect x="21.8" y="12.4" class="st0" width="17.3" height="73"/>
</svg>
