<?xml version="1.0" encoding="utf-8"?>
<!-- Generator: Adobe Illustrator 13.0.0, SVG Export Plug-In . SVG Version: 6.00 Build 14948)  -->
<!DOCTYPE svg PUBLIC "-//W3C//DTD SVG 1.1//EN" "http://www.w3.org/Graphics/SVG/1.1/DTD/svg11.dtd">
<svg version="1.1" id="Layer_1" xmlns="http://www.w3.org/2000/svg" xmlns:xlink="http://www.w3.org/1999/xlink" x="0px" y="0px"
	 width="133.535px" height="127.111px" viewBox="0 0 133.535 127.111" enable-background="new 0 0 133.535 127.111"
	 xml:space="preserve">
<g>
	<path fill="#FFFFFF" d="M100.076,85.028l20.066-54.064H33.456l20.338,54.064H100.076L100.076,85.028z M105.932,104.821
		c6.129,0,11.146,5.02,11.146,11.146s-5.018,11.145-11.146,11.145s-11.146-5.017-11.146-11.145
		C94.766,109.839,99.781,104.821,105.932,104.821z M47.1,104.821c6.127,0,11.145,5.02,11.145,11.146s-5.016,11.145-11.145,11.145
		c-6.13,0-11.146-5.017-11.146-11.145S40.97,104.821,47.1,104.821z M29.553,20.635h98.965c2.791,0,5.017,2.226,5.017,5.016
		l-26.761,67.46l-0.842,1.112c-20.063,0-40.13,0-60.218,0C34.568,66.349,24.24,38.181,13.664,10.307H5.289
		C2.519,10.602,0,8.081,0,5.289S2.52,0,5.289,0h12.824c1.953,0,3.336,0.841,4.449,2.226l0,0l0,0c0.272,0.566,0.567,0.84,0.567,1.385
		L29.553,20.635z"/>
</g>
</svg>
