<svg id="Capa_1" data-name="Capa 1" xmlns="http://www.w3.org/2000/svg" viewBox="0 0 503.12 403.89"><defs><style>.cls-1{fill:#fff;}.cls-2{fill:#16aeec;}</style></defs><title>speech-bubbles-white</title><path class="cls-1" d="M301.93,272.8q46.39-19.56,73.23-53.25T402,146.18q0-39.69-26.84-73.38T301.92,19.55Q255.5,0,201,0T100.07,19.55Q53.67,39.07,26.84,72.8T0,146.18q0,34,20.28,64t55.67,50.49q-2.85,6.86-5.85,12.57a72.37,72.37,0,0,1-7.14,11q-4.14,5.29-6.42,8.27t-7.42,8.42q-5.15,5.42-6.62,7.14,0-.29-1.14,1.29c-.76,1.05-1.19,1.52-1.28,1.43s-.48.37-1.14,1.42l-1,1.57-.72,1.42a6.11,6.11,0,0,0-.57,1.71,11.17,11.17,0,0,0-.14,1.85,5.75,5.75,0,0,0,.29,1.85,9.46,9.46,0,0,0,3.28,6,8.92,8.92,0,0,0,5.85,2.28h.86a239.39,239.39,0,0,0,24.55-4.57,240.08,240.08,0,0,0,79.37-36.54A286.72,286.72,0,0,0,201,292.35Q255.5,292.36,301.93,272.8Z" transform="translate(0 0)"/><path class="cls-1" d="M482.85,285.24q20.28-29.83,20.27-64.09,0-35.12-21.42-65.68t-58.2-50.82a146.93,146.93,0,0,1-12.6,115.91q-19.13,34.26-54.82,60.51-33.12,24-75.38,36.83a301.64,301.64,0,0,1-88.2,12.86q-8.56,0-25.12-1.14,57.38,37.68,134.76,37.68a286.86,286.86,0,0,0,50.25-4.57A228,228,0,0,0,456.3,403.86a8.61,8.61,0,0,0,6.28-2,10.55,10.55,0,0,0,3.71-6.27c-.09-1.14,0-1.77.29-1.86s.23-.71-.14-1.85l-.57-1.71-.71-1.42a13.68,13.68,0,0,0-1-1.57,12.28,12.28,0,0,0-1.14-1.43c-.28-.28-.7-.76-1.28-1.42s-1-1.09-1.14-1.28q-1.43-1.71-6.56-7.14t-7.42-8.42q-2.28-3-6.42-8.28a72.21,72.21,0,0,1-7.14-11q-3-5.71-5.85-12.56Q462.59,315.07,482.85,285.24Z" transform="translate(0 0)"/><path class="cls-2" d="M195.93,184.07a12.82,12.82,0,0,0,12.77-11.75l8.66-103.49a21.51,21.51,0,1,0-42.88,0l8.66,103.49A12.82,12.82,0,0,0,195.93,184.07Z" transform="translate(0 0)"/><rect class="cls-2" x="181.5" y="213.07" width="28" height="28" rx="8" ry="8"/></svg>