<?xml version="1.0" encoding="utf-8"?>
<!-- Generator: Adobe Illustrator 21.1.0, SVG Export Plug-In . SVG Version: 6.00 Build 0)  -->
<svg version="1.1" id="Layer_1" xmlns="http://www.w3.org/2000/svg" xmlns:xlink="http://www.w3.org/1999/xlink" x="0px" y="0px"
	 viewBox="0 0 72 70" style="enable-background:new 0 0 72 70;" xml:space="preserve">
<style type="text/css">
	.st0{fill:none;enable-background:new    ;}
	.st1{fill:none;stroke:#FFFFFF;stroke-miterlimit:10;}
</style>
<path class="st0" d="z"/>
<path class="st1" d="M56.2,68.3c-2.7,0-6-0.7-9.6-2c-7.9-3-16.5-8.9-24.2-16.6C14.7,41.9,8.8,33.3,5.8,25.4
	c-2.7-7.2-2.7-13.1,0-15.8C6.2,9.3,6.6,8.8,7,8.4c2.5-2.6,5.2-5.5,8.9-5.4c2.5,0.1,5,1.7,7.5,4.8c7.5,9.3,4.1,12.6,0.2,16.4L23,24.9
	c-0.6,0.6-1.8,3.6,9.4,14.8c3.6,3.7,6.8,6.3,9.2,7.9c1.6,1,4.4,2.6,5.5,1.4l0.7-0.7c3.8-3.9,7.1-7.2,16.4,0.2c3.1,2.5,4.7,5,4.8,7.5
	c0.2,3.7-2.8,6.5-5.4,8.9c-0.4,0.4-0.8,0.8-1.2,1.2C61,67.6,58.9,68.3,56.2,68.3L56.2,68.3z"/>
</svg>
