<?xml version="1.0" encoding="utf-8"?>
<!-- Generator: Adobe Illustrator 13.0.0, SVG Export Plug-In . SVG Version: 6.00 Build 14948)  -->
<!DOCTYPE svg PUBLIC "-//W3C//DTD SVG 1.1//EN" "http://www.w3.org/Graphics/SVG/1.1/DTD/svg11.dtd">
<svg version="1.1" id="Livello_1" xmlns="http://www.w3.org/2000/svg" xmlns:xlink="http://www.w3.org/1999/xlink" x="0px" y="0px"
	 width="799.958px" height="206.976px" viewBox="-0.094 196.435 799.958 206.976"
	 enable-background="new -0.094 196.435 799.958 206.976" xml:space="preserve">
<g>
	<path fill="#EC6E08" d="M322.834,359.456c-8.603-10.626-13.662-25.808-14.169-27.325c-5.566-14.674-4.554-30.359-3.542-45.54
		c1.012-15.687,7.59-29.349,15.686-41.999c30.36-48.071,92.095-59.203,137.129-31.372c37.444,22.771,56.674,66.793,45.541,110.31
		c-10.627,43.012-44.022,72.359-87.033,76.914c-36.938,4.049-67.299-9.614-91.082-37.95
		C324.352,361.986,323.846,360.975,322.834,359.456z M405.819,217.268c-48.071,0.506-83.491,35.927-83.491,82.985
		c0,45.034,33.902,80.962,80.961,82.479c47.059,1.517,85.01-37.445,84.504-81.975C487.793,254.712,451.359,217.773,405.819,217.268z
		"/>
	<path fill="#EC6E08" d="M340.038,298.735c-3.542-34.409,32.891-65.781,65.274-65.275c36.938,1.012,66.287,30.36,65.78,66.793
		c-0.506,36.938-30.359,65.781-67.299,65.274C367.362,366.034,335.99,332.131,340.038,298.735z M442.252,268.375
		c-14.168-19.734-51.107-26.818-74.89-1.012c-16.192,17.205-14.675,49.589,0,64.263c-10.626-26.313-4.555-47.564,17.204-63.756
		C403.289,254.206,423.023,256.736,442.252,268.375z"/>
	<g>
		<path fill="#EC6E08" d="M121.442,398.419c-21.252,0-39.975-7.085-57.685-18.217c-18.216-11.638-34.409-26.312-46.047-44.528
			C1.012,309.361-5.566,281.531,5.06,251.17c3.542-10.626,9.614-20.24,17.71-28.336c4.554-4.554,10.626-3.036,12.65,3.036
			c3.036,8.096,5.566,16.698,9.614,24.289c4.048,8.096,9.614,15.686,15.687,22.264c15.18,17.71,34.409,31.373,52.119,46.046
			c20.241,16.699,39.469,33.903,52.625,56.674c3.542,6.072,2.53,9.613-3.036,13.156
			C149.779,395.383,136.116,398.419,121.442,398.419z"/>
		<path fill="#EC6E08" d="M205.946,311.385c0,26.313-7.59,45.541-22.771,61.229c-4.554,4.554-11.132,3.035-12.65-3.036
			c-6.072-23.276-18.722-42.505-35.927-59.203c-11.638-11.132-24.288-21.252-35.926-31.878
			c-12.145-11.132-24.289-21.758-35.421-33.396c-8.096-8.096-14.168-17.71-20.746-26.818c-4.048-5.566-3.036-9.614,3.036-12.65
			c7.084-3.036,15.18-6.072,22.77-7.084c29.854-5.06,56.167,4.048,79.95,21.252c17.204,12.145,31.878,26.819,42.504,45.035
			C200.379,280.519,205.946,297.217,205.946,311.385z"/>
	</g>
	<g>
		<path fill="#EC6E08" d="M626.945,378.178c-7.592-8.602-11.133-12.144-14.169-16.191c-28.843-37.444-26.313-46.047,16.697-63.756
			c17.711-7.084,34.409-17.205,50.603-27.831c15.686-10.12,27.83-8.096,40.479,4.554c12.65,12.65,14.675,23.782,5.061,40.48
			c-13.662,22.265-24.794,46.553-34.408,71.348c-6.072,15.687-14.674,20.746-28.843,13.156
			C648.197,392.854,635.041,383.238,626.945,378.178z"/>
		<path fill="#EC6E08" d="M688.172,254.712c-31.372,15.18-59.709,28.842-88.045,43.011c-11.133-33.397,0-73.877,22.771-93.106
			c13.661-11.132,26.313-11.638,36.938,3.036C668.943,220.81,676.534,234.978,688.172,254.712z"/>
		<path fill="#EC6E08" d="M697.28,399.431c15.181-31.372,29.349-60.215,44.021-90.575c17.204,9.613,30.867,16.191,43.518,24.795
			c18.723,12.649,20.24,29.349,3.036,43.517C763.567,397.913,735.736,406.515,697.28,399.431z"/>
	</g>
</g>
</svg>
