<?xml version="1.0" encoding="utf-8"?>
<!-- Generator: Adobe Illustrator 13.0.0, SVG Export Plug-In . SVG Version: 6.00 Build 14948)  -->
<!DOCTYPE svg PUBLIC "-//W3C//DTD SVG 1.1//EN" "http://www.w3.org/Graphics/SVG/1.1/DTD/svg11.dtd">
<svg version="1.1" id="Layer_1" xmlns="http://www.w3.org/2000/svg" xmlns:xlink="http://www.w3.org/1999/xlink" x="0px" y="0px"
	 width="192.764px" height="250.072px" viewBox="0 0 192.764 250.072" enable-background="new 0 0 192.764 250.072"
	 xml:space="preserve">
<g>
	<path fill="#A2B1B7" d="M61.717,153.49c4.81-9.22,10.82-17.232,18.437-23.646c-6.013,0.801-12.021,1.2-18.437,1.2
		c-17.634,0-34.465-3.606-47.29-9.617c-5.609-2.807-10.42-6.013-14.025-9.619v12.022C0.401,140.267,27.653,153.49,61.717,153.49"/>
	<path fill="#A2B1B7" d="M56.907,216.008c-2.403-7.213-4.008-14.827-4.407-22.44c-14.429-0.803-27.652-4.008-38.475-9.217
		c-5.609-2.808-10.42-6.014-14.025-9.619v12.021C0.401,201.979,25.248,214.808,56.907,216.008"/>
	<path fill="#A2B1B7" d="M52.9,184.749c0.4-7.614,2.004-15.229,4.811-22.042c-16.03-0.399-31.26-4.007-43.282-9.617
		c-5.609-2.806-10.42-6.012-14.025-9.618v12.022C0.401,169.921,23.244,182.347,52.9,184.749"/>
	<path fill="#A2B1B7" d="M61.717,90.973c33.664,0,61.315-13.226,61.315-29.656V49.294c-3.606,3.606-8.416,6.813-14.026,9.618
		C96.182,64.924,79.35,68.53,61.717,68.53c-17.634,0-34.465-3.606-47.29-9.618c-5.61-2.807-10.42-6.012-14.026-9.618v12.022
		C0.401,77.346,27.653,90.973,61.717,90.973"/>
	<path fill="#A2B1B7" d="M61.717,122.23c33.664,0,61.315-13.226,61.315-29.655V80.553c-3.606,3.606-8.416,6.813-14.026,9.617
		c-12.824,6.012-29.656,9.618-47.289,9.618c-17.634,0-34.465-3.606-47.29-9.618c-5.609-2.806-10.42-6.011-14.025-9.617v12.022
		C0.401,108.605,27.653,122.23,61.717,122.23"/>
	<path fill="#A2B1B7" d="M14.427,215.606c-5.61-2.807-10.42-6.014-14.026-9.617v12.021c0,16.435,27.252,29.656,61.315,29.656
		c5.209,0,10.02-0.397,14.829-0.802c-6.412-6.412-11.622-13.627-15.63-21.643C43.282,225.226,26.852,221.619,14.427,215.606"/>
	<path fill="#A2B1B7" d="M132.651,129.847c-33.264,0-60.111,26.853-60.111,60.112c0,33.263,26.851,60.112,60.111,60.112
		c33.266,0,60.112-26.852,60.112-60.112C192.764,156.698,165.914,129.847,132.651,129.847 M149.082,183.547l-1.203,6.013h-22.041
		c0,1.203,0,2.807,0,4.407h21.642l-1.202,6.013H127.04c2.806,11.223,12.823,14.025,22.843,10.021l2.808,10.42
		c-18.437,7.614-37.271-2.806-40.878-20.438h-8.016l1.201-6.01h6.012c0-1.604,0-2.808,0-4.408h-5.61l1.202-6.012h5.21
		c4.007-16.832,18.437-26.451,41.277-19.236l-2.404,10.42c-11.622-3.606-20.84-2.403-24.047,9.218L149.082,183.547L149.082,183.547z
		"/>
	<path fill="#A2B1B7" d="M61.717,59.31c33.664,0,61.315-13.225,61.315-29.654C123.032,13.224,95.781,0,61.717,0
		S0.401,13.224,0.401,29.656C0.401,46.087,27.653,59.31,61.717,59.31"/>
</g>
</svg>
