<?xml version="1.0" encoding="utf-8"?>
<!-- Generator: Adobe Illustrator 21.1.0, SVG Export Plug-In . SVG Version: 6.00 Build 0)  -->
<svg version="1.1" id="Layer_1" xmlns="http://www.w3.org/2000/svg" xmlns:xlink="http://www.w3.org/1999/xlink" x="0px" y="0px"
	 viewBox="0 0 56 66" style="enable-background:new 0 0 56 66;" xml:space="preserve">
<style type="text/css">
	.st0{fill:#FFFFFF;}
	.st1{fill:none;enable-background:new    ;}
</style>
<g>
	<path class="st0" d="M52.7,34.8h-1.9c-1.2-3.8-3.7-7.1-6.9-9.8c0-0.1,0-0.3-0.1-0.4c-0.7-2.4,0.2-4.5,1.1-6.1
		c0.7-1.1-0.2-2.5-1.5-2.3c-2.9,0.4-4.8,1.4-6.2,2.6c-0.9,0.8-1.6,1.9-1.9,3.1c-2,8.5-9.7,14.8-18.8,14.8c-4.4,0-8.5-1.5-11.7-4
		c-1.1,2.5-1.7,5.1-1.7,7.9c0,1.5,0.2,3,0.5,4.4c0,0,0,0,0,0.1c0.4,1.5,0.9,2.9,1.6,4.2c0.9,2,2.3,4.3,4.1,6.2
		c2.6,2.7,3.1,6.1,3.2,7.6v0.7c0.1,0.7,0.6,1.3,1.4,1.3h8.4c0.8,0,1.4-0.6,1.4-1.4v-2.1c1.2,0.2,2.5,0.3,3.7,0.3c1,0,2-0.1,2.9-0.2
		v2c0,0.8,0.6,1.4,1.4,1.4h8.4c0.8,0,1.4-0.6,1.4-1.4v-2.1c0-0.7,0.3-3.4,2.8-5.8c0.1-0.1,0.2-0.2,0.3-0.3c0,0,0.1,0,0.1-0.1
		c2.9-2.6,5-5.8,6.1-9.4h1.8c1.4,0,2.5-1.1,2.5-2.5v-6.3C55.2,35.9,54.1,34.8,52.7,34.8L52.7,34.8z M42.2,35.2
		c-1.1,0-2.1-0.9-2.1-2.1c0-1.1,0.9-2.1,2.1-2.1c1.1,0,2.1,0.9,2.1,2.1C44.3,34.3,43.3,35.2,42.2,35.2L42.2,35.2z M42.2,35.2"/>
	<path class="st0" d="M16.7,33.4c8.9,0,16.1-7.2,16.1-16.1c0-8.9-7.2-16.1-16.1-16.1C7.8,1.3,0.6,8.5,0.6,17.4
		C0.6,26.2,7.8,33.4,16.7,33.4L16.7,33.4z M7.3,18.2c0-0.3,0.3-0.6,0.6-0.6h1.5v-1H7.8c-0.3,0-0.6-0.3-0.6-0.6v-1.2
		c0-0.3,0.3-0.6,0.6-0.6h1.9l0.1-0.2c0.5-1.7,1.4-3.1,2.8-4.2c1.1-0.9,2.4-1.3,3.7-1.5c1.9-0.3,3.8,0,5.6,0.7c0.1,0,0.2,0.1,0.3,0.2
		c0.4,0.3,0.6,0.6,0.4,1c-0.2,0.5-0.4,1-0.6,1.5c-0.2,0.4-0.5,0.6-0.9,0.4c-0.6-0.1-1.2-0.3-1.8-0.4c-1.3-0.3-2.6-0.3-3.8,0.2
		c-1.1,0.4-1.7,1.3-2.2,2.3v0H17c0.3,0,0.6,0.3,0.6,0.6v1.2c0,0.3-0.3,0.6-0.6,0.6h-4.3v1H17c0.3,0,0.6,0.3,0.6,0.6v1.2
		c0,0.3-0.3,0.6-0.6,0.6h-3.9c0.5,1.4,1.3,2.4,2.7,2.9c1.2,0.4,2.3,0.3,3.5,0.1c0.6-0.1,1.2-0.3,1.8-0.4c0.5-0.1,0.7,0,0.9,0.5
		c0.2,0.5,0.4,1,0.6,1.5c0.2,0.4,0.1,0.8-0.4,1c-0.5,0.2-1,0.4-1.5,0.5c-2,0.5-3.9,0.6-5.9-0.1c-2.3-0.8-3.9-2.4-4.8-4.6
		c-0.2-0.4-0.3-0.9-0.4-1.3H7.8c-0.3,0-0.6-0.3-0.6-0.6L7.3,18.2L7.3,18.2z M7.3,18.2"/>
</g>
<path class="st1" d="z"/>
</svg>
