<?xml version="1.0" encoding="utf-8"?>
<!-- Generator: Adobe Illustrator 21.1.0, SVG Export Plug-In . SVG Version: 6.00 Build 0)  -->
<svg version="1.1" id="Layer_1" xmlns="http://www.w3.org/2000/svg" xmlns:xlink="http://www.w3.org/1999/xlink" x="0px" y="0px"
	 viewBox="0 0 74 66" style="enable-background:new 0 0 74 66;" xml:space="preserve">
<style type="text/css">
	.st0{fill:none;enable-background:new    ;}
	.st1{clip-path:url(#SVGID_2_);fill:#FFFFFF;}
	.st2{fill:#FFFFFF;}
</style>
<path class="st0" d="z"/>
<g>
	<g>
		<defs>
			<rect id="SVGID_1_" x="1.8" y="1.3" width="70.5" height="63.5"/>
		</defs>
		<clipPath id="SVGID_2_">
			<use xlink:href="#SVGID_1_"  style="overflow:visible;"/>
		</clipPath>
		<path class="st1" d="M65.9,19.9C60.9,8.8,49.8,1.5,37.6,1.3C25,1.1,13.5,8.4,8.3,19.9c-3.6,0.5-6.5,3.6-6.5,7.4v11.3
			c0,3.8,2.8,6.9,6.5,7.4c5.1,11.3,16.3,18.6,28.8,18.6c12.5,0,23.7-7.3,28.8-18.6c3.6-0.5,6.5-3.6,6.5-7.4V27.3
			C72.4,23.5,69.5,20.4,65.9,19.9L65.9,19.9z M37.6,4C48.3,4.2,58,10.4,62.9,19.8H11.3C16.3,10,26.4,3.8,37.6,4L37.6,4z M37.1,61.9
			c-11,0-20.9-6.1-25.8-15.8h51.6C58,55.7,48.1,61.9,37.1,61.9L37.1,61.9z M69.7,38.6c0,2.6-2.1,4.8-4.8,4.8H9.3
			c-2.6,0-4.8-2.1-4.8-4.8V27.3c0-2.6,2.1-4.8,4.8-4.8h55.6c2.6,0,4.8,2.1,4.8,4.8V38.6z M69.7,38.6"/>
	</g>
	<path class="st2" d="M21.4,34.8l-2.3-7H16l-2.3,7l-2.3-7H8.1l4,11.7h3.4l2.2-6.3l2.1,6.3h3.4l4-11.7h-3.4L21.4,34.8z M21.4,34.8"/>
	<path class="st2" d="M40.9,34.8l-2.3-7h-3.1l-2.3,7l-2.3-7h-3.4l4,11.7h3.4l2.2-6.3l2.1,6.3h3.4l4-11.7h-3.4L40.9,34.8z M40.9,34.8
		"/>
	<path class="st2" d="M60.5,34.8l-2.3-7H55l-2.3,7l-2.3-7h-3.4l4,11.7h3.4l2.2-6.3l2.1,6.3h3.4l4-11.7h-3.4L60.5,34.8z M60.5,34.8"
		/>
</g>
</svg>
